<svg width="34" height="34" viewBox="0 0 34 34" fill="none" xmlns="http://www.w3.org/2000/svg">
<g clip-path="url(#clip0_23_740)">
<circle cx="17" cy="14.4816" r="7.55556" fill="#F7EA3E"/>
<path d="M19.5329 12.8486C19.7299 12.6304 19.9116 12.4229 20.1005 12.2229C20.3571 11.9511 20.6381 11.928 20.8556 12.1529C21.0625 12.3667 21.046 12.6995 20.8128 12.9509C19.3209 14.559 17.8287 16.1669 16.3358 17.774C16.0693 18.0609 15.7277 18.0787 15.4691 17.8043C14.7018 16.9903 13.9379 16.1728 13.1792 15.35C12.8919 15.0384 12.9611 14.6174 13.308 14.4829C13.5489 14.3894 13.722 14.5115 13.8828 14.6839C14.4643 15.3073 15.048 15.9283 15.6317 16.5495C15.8668 16.7997 15.8857 16.8025 16.1243 16.5443C17.2577 15.3183 18.3888 14.09 19.5329 12.8486Z" fill="#1E1E1E"/>
<path d="M33.6877 25.356L29.712 21.3825C30.1614 21.0558 30.5163 20.6159 30.7405 20.1075C31.0901 18.8275 30.9269 17.4615 30.2857 16.2998C30.0072 15.7065 29.8257 15.0723 29.7482 14.4214C29.8256 13.8013 30.0028 13.1978 30.273 12.6344C30.9366 11.4447 31.1038 10.0412 30.7383 8.72887C30.0697 7.5426 28.9591 6.66881 27.6488 6.29803C27.0602 6.0896 26.5092 5.78753 26.0169 5.40346C25.6086 4.8882 25.2857 4.31066 25.0607 3.69294C24.6928 2.41871 23.843 1.33794 22.6915 0.679876C21.4116 0.327068 20.0445 0.490334 18.8837 1.1346C18.2884 1.41382 17.652 1.59534 16.999 1.67219C16.3789 1.59478 15.7754 1.41754 15.2119 1.14735C14.0229 0.481903 12.6189 0.313852 11.3064 0.679876C10.1197 1.34906 9.24588 2.46046 8.87559 3.77156C8.66716 4.36012 8.36509 4.91118 7.98102 5.40346C7.46577 5.81178 6.88823 6.13463 6.2705 6.35965C4.99627 6.72754 3.9155 7.57737 3.25744 8.72887C2.90784 10.0089 3.07096 11.3749 3.71216 12.5366C3.99138 13.132 4.1729 13.7684 4.24975 14.4214C4.17234 15.0415 3.9951 15.6449 3.72491 16.2084C3.0613 17.3981 2.89407 18.8016 3.25956 20.1139C3.4845 20.6194 3.83574 21.0584 4.2795 21.3888L0.31237 25.3538C0.193215 25.473 0.104099 25.6187 0.0523746 25.779C0.000650091 25.9394 -0.0121984 26.1097 0.0148897 26.276C0.041908 26.4422 0.108015 26.5995 0.207761 26.7351C0.307508 26.8707 0.43804 26.9806 0.588605 27.0559L4.52173 29.0235L6.48936 32.9566C6.56461 33.1072 6.67454 33.2377 6.81013 33.3375C6.94571 33.4372 7.10305 33.5033 7.26919 33.5303C7.32471 33.5393 7.38081 33.5443 7.43705 33.5452C7.57667 33.5454 7.71496 33.5182 7.84403 33.4649C7.9731 33.4117 8.09041 33.3336 8.18925 33.235L13.1041 28.318C13.7938 28.1865 14.4677 27.9821 15.1142 27.7082C15.7095 27.429 16.3459 27.2474 16.999 27.1706C17.619 27.248 18.2225 27.4252 18.786 27.6954C19.4702 27.9938 20.1868 28.2113 20.9215 28.3435L25.8087 33.2307C25.9072 33.3301 26.0243 33.409 26.1534 33.463C26.2825 33.517 26.4209 33.5449 26.5609 33.5452C26.6178 33.5451 26.6746 33.5408 26.7308 33.5325C26.897 33.5054 27.0543 33.4393 27.1899 33.3396C27.3255 33.2398 27.4354 33.1093 27.5107 32.9587L29.4783 29.0256L33.4114 27.058C33.562 26.9827 33.6925 26.8728 33.7923 26.7372C33.892 26.6016 33.9581 26.4443 33.9851 26.2782C34.0122 26.1119 33.9994 25.9415 33.9477 25.7812C33.8959 25.6208 33.8068 25.4751 33.6877 25.356ZM16.999 25.0457C16.0794 25.1075 15.179 25.338 14.3429 25.7257C13.4929 26.0593 12.6111 26.4014 12.1203 26.1974C11.6294 25.9934 11.2491 25.135 10.8815 24.285C10.5656 23.419 10.0915 22.6192 9.4833 21.9264C8.80944 21.3398 8.03183 20.8843 7.19057 20.5835C6.34062 20.2117 5.44393 19.8271 5.22082 19.2895C4.99771 18.7519 5.35468 17.8509 5.69891 16.9819C6.07956 16.1771 6.30863 15.3092 6.37462 14.4214C6.31284 13.5018 6.08235 12.6015 5.69466 11.7653C5.36106 10.9154 5.01895 10.0335 5.22294 9.5427C5.42693 9.05185 6.28537 8.6715 7.13532 8.3039C8.00138 7.98805 8.80117 7.51394 9.49392 6.90574C10.0806 6.23187 10.536 5.45427 10.8368 4.61301C11.2087 3.76306 11.5933 2.86636 12.1309 2.64325C12.9312 2.55694 13.7384 2.72417 14.4385 3.12135C15.2432 3.502 16.1112 3.73107 16.999 3.79706C17.9185 3.73527 18.8189 3.50478 19.655 3.1171C20.505 2.78349 21.3804 2.43502 21.8776 2.64538C22.3749 2.85574 22.7488 3.70781 23.1164 4.55776C23.4323 5.42382 23.9064 6.22361 24.5146 6.91636C25.1885 7.50299 25.9661 7.95845 26.8073 8.25928C27.6573 8.63113 28.554 9.01573 28.7771 9.55332C29.0002 10.0909 28.6432 10.9919 28.299 11.8609C27.9183 12.6656 27.6893 13.5336 27.6233 14.4214C27.6851 15.341 27.9156 16.2413 28.3032 17.0775C28.6369 17.9274 28.979 18.8092 28.775 19.3001C28.571 19.7909 27.7125 20.1713 26.8626 20.5389C25.9965 20.8547 25.1967 21.3288 24.504 21.937C23.9174 22.6109 23.4619 23.3885 23.1611 24.2298C22.7892 25.0797 22.4046 25.9764 21.867 26.1995C21.3294 26.4226 20.4306 26.0657 19.5594 25.7214C18.7547 25.3408 17.8867 25.1117 16.999 25.0457ZM7.72816 30.6873L6.262 27.7549C6.1593 27.55 5.99309 27.3838 5.78816 27.2811L2.85584 25.8149L6.19613 22.4746L6.34912 22.5426C6.93769 22.7511 7.48874 23.0531 7.98102 23.4372C8.38836 23.9492 8.71117 24.5231 8.93721 25.1371C9.28779 26.1349 9.88066 27.0301 10.6626 27.7422L7.72816 30.6873ZM28.2098 27.2875C28.0048 27.3902 27.8386 27.5564 27.7359 27.7613L26.2697 30.6936L23.3374 27.7613C24.1519 27.0331 24.7664 26.1084 25.1223 25.0755C25.3307 24.4869 25.6328 23.9359 26.0169 23.4436C26.5289 23.0362 27.1028 22.7134 27.7168 22.4874L27.772 22.4619L31.1314 25.8213L28.2098 27.2875ZM25.4984 14.4214C25.4984 12.1672 24.6029 10.0053 23.009 8.41136C21.415 6.8174 19.2532 5.92192 16.999 5.92192C14.7448 5.92192 12.5829 6.8174 10.9889 8.41136C9.39496 10.0053 8.49949 12.1672 8.49949 14.4214C8.49949 16.6756 9.39496 18.8375 10.9889 20.4314C12.5829 22.0254 14.7448 22.9209 16.999 22.9209C19.2532 22.9209 21.415 22.0254 23.009 20.4314C24.6029 18.8375 25.4984 16.6756 25.4984 14.4214ZM16.999 20.796C15.3083 20.796 13.6869 20.1244 12.4914 18.9289C11.296 17.7334 10.6244 16.112 10.6244 14.4214C10.6244 12.7307 11.296 11.1093 12.4914 9.91387C13.6869 8.7184 15.3083 8.04679 16.999 8.04679C18.6896 8.04679 20.311 8.7184 21.5065 9.91387C22.702 11.1093 23.3736 12.7307 23.3736 14.4214C23.3736 16.112 22.702 17.7334 21.5065 18.9289C20.311 20.1244 18.6896 20.796 16.999 20.796Z" fill="white"/>
</g>
<defs>
<clipPath id="clip0_23_740">
<rect width="34" height="34" fill="white"/>
</clipPath>
</defs>
</svg>
