<svg width="42" height="42" viewBox="0 0 42 42" fill="none" xmlns="http://www.w3.org/2000/svg">
<g clip-path="url(#clip0_24_1004)">
<path d="M21 24.6915C23.0344 24.6915 24.6996 23.0344 24.6996 20.9918C24.6996 20.1879 24.4371 19.4415 24.0023 18.8344C23.3297 17.9075 22.2387 17.2922 21.0082 17.2922C19.7777 17.2922 18.6867 17.8993 18.0141 18.8344C17.5793 19.4415 17.3168 20.1879 17.3168 20.9918C17.3086 23.0344 18.9656 24.6915 21 24.6915Z" fill="#1E1E1E"/>
<path d="M29.0719 16.4801V13.3793V12.9199H28.6125L25.5117 12.9281L25.5281 16.4883L29.0719 16.4801Z" fill="#1E1E1E"/>
<path d="M38.7188 0H3.28125C1.46836 0 0 1.46836 0 3.28125V38.7188C0 40.5316 1.46836 42 3.28125 42H38.7188C40.5316 42 42 40.5316 42 38.7188V3.28125C42 1.46836 40.5316 0 38.7188 0ZM31.5 18.8426V27.4395C31.5 29.6789 29.6789 31.5 27.4395 31.5H14.5605C12.3211 31.5 10.5 29.6789 10.5 27.4395V18.8426V14.5523C10.5 12.3129 12.3211 10.4918 14.5605 10.4918H27.4395C29.6789 10.4918 31.5 12.3129 31.5 14.5523V18.8426Z" fill="#1E1E1E"/>
<path d="M26.7422 21C26.7422 24.1664 24.1664 26.7421 21 26.7421C17.8336 26.7421 15.2578 24.1664 15.2578 21C15.2578 20.2371 15.4137 19.507 15.6844 18.8425H12.5508V27.4394C12.5508 28.5468 13.4531 29.4492 14.5605 29.4492H27.4395C28.5469 29.4492 29.4492 28.5468 29.4492 27.4394V18.8425H26.3156C26.5945 19.507 26.7422 20.2371 26.7422 21Z" fill="#1E1E1E"/>
</g>
<defs>
<clipPath id="clip0_24_1004">
<rect width="42" height="42" fill="white"/>
</clipPath>
</defs>
</svg>
