<svg width="44" height="44" viewBox="0 0 44 44" fill="none" xmlns="http://www.w3.org/2000/svg">
<path fill-rule="evenodd" clip-rule="evenodd" d="M5.81457 9.48114C3.66669 11.629 3.66669 15.086 3.66669 21.9999C3.66669 28.9139 3.66669 32.3708 5.81457 34.5187C7.96245 36.6666 11.4194 36.6666 18.3334 36.6666H25.6667C32.5806 36.6666 36.0376 36.6666 38.1855 34.5187C40.3334 32.3708 40.3334 28.9139 40.3334 21.9999C40.3334 15.086 40.3334 11.629 38.1855 9.48114C36.0376 7.33325 32.5806 7.33325 25.6667 7.33325H18.3334C11.4194 7.33325 7.96245 7.33325 5.81457 9.48114ZM34.0563 13.7863C34.5425 14.3697 34.4637 15.2367 33.8803 15.7229L29.8534 19.0786C28.2284 20.4328 26.9113 21.5304 25.7489 22.2781C24.538 23.0569 23.3587 23.5489 22 23.5489C20.6414 23.5489 19.4621 23.0569 18.2512 22.2781C17.0887 21.5304 15.7717 20.4328 14.1467 19.0786L10.1198 15.7229C9.53639 15.2367 9.45756 14.3697 9.94372 13.7863C10.4299 13.203 11.2969 13.1241 11.8803 13.6103L15.8382 16.9086C17.5487 18.3339 18.7362 19.3203 19.7388 19.9652C20.7092 20.5893 21.3674 20.7989 22 20.7989C22.6327 20.7989 23.2908 20.5893 24.2613 19.9652C25.2638 19.3203 26.4514 18.3339 28.1618 16.9086L32.1198 13.6103C32.7031 13.1241 33.5702 13.203 34.0563 13.7863Z" fill="white"/>
</svg>
