<svg width="61" height="52" viewBox="0 0 61 52" fill="none" xmlns="http://www.w3.org/2000/svg">
<path d="M10 41.0909V32.9091C10 30.4242 10.4394 27.7879 11.3182 25C12.2273 22.1818 13.5303 19.4697 15.2273 16.8636C16.9545 14.2273 19.0303 11.9394 21.4545 10L27.2727 14.7273C25.3636 17.4545 23.697 20.303 22.2727 23.2727C20.8788 26.2121 20.1818 29.3636 20.1818 32.7273V41.0909H10ZM33.2727 41.0909V32.9091C33.2727 30.4242 33.7121 27.7879 34.5909 25C35.5 22.1818 36.803 19.4697 38.5 16.8636C40.2273 14.2273 42.303 11.9394 44.7273 10L50.5455 14.7273C48.6364 17.4545 46.9697 20.303 45.5455 23.2727C44.1515 26.2121 43.4545 29.3636 43.4545 32.7273V41.0909H33.2727Z" fill="white"/>
</svg>
