<svg width="76" height="76" viewBox="0 0 76 76" fill="none" xmlns="http://www.w3.org/2000/svg">
<circle cx="38" cy="38" r="38" fill="#1E1E1E"/>
<path d="M49.6937 31.1555C50.5049 30.3101 51.2528 29.5058 52.0303 28.7305C53.0868 27.677 54.2433 27.5878 55.139 28.4593C55.9905 29.2878 55.9228 30.5777 54.9627 31.552C48.821 37.7846 42.6783 44.0162 36.5323 50.2447C35.435 51.3568 34.0292 51.4258 32.9643 50.3622C29.8057 47.2074 26.6608 44.0392 23.5376 40.8503C22.3549 39.6427 22.6397 38.0111 24.0678 37.4896C25.0596 37.1273 25.7723 37.6004 26.4342 38.2686C28.8278 40.6848 31.231 43.0916 33.6337 45.4991C34.6015 46.4688 34.6792 46.4798 35.6617 45.4791C40.3274 40.7274 44.9839 35.9668 49.6937 31.1555Z" fill="#F7EA3E"/>
</svg>
