<svg width="32" height="32" viewBox="0 0 32 32" fill="none" xmlns="http://www.w3.org/2000/svg">
<circle cx="16" cy="16" r="16" fill="#F7EA3E"/>
<path d="M22.5156 11.8385C22.9836 11.366 23.4151 10.9163 23.8637 10.4829C24.4732 9.89397 25.1404 9.84408 25.6571 10.3313C26.1484 10.7945 26.1093 11.5155 25.5554 12.0602C22.0122 15.5445 18.4683 19.0282 14.9225 22.5102C14.2895 23.1319 13.4784 23.1705 12.864 22.5759C11.0418 20.8123 9.2274 19.0411 7.42558 17.2583C6.74325 16.5833 6.90752 15.6711 7.73145 15.3796C8.30364 15.1771 8.7148 15.4415 9.0967 15.8151C10.4776 17.1658 11.8641 18.5114 13.2502 19.8572C13.8086 20.3993 13.8534 20.4055 14.4203 19.8461C17.112 17.1897 19.7984 14.5283 22.5156 11.8385Z" fill="#1E1E1E"/>
</svg>
