<svg width="19" height="13" viewBox="0 0 19 13" fill="none" xmlns="http://www.w3.org/2000/svg">
<path d="M15.5156 1.83855C15.9836 1.36597 16.4151 0.916307 16.8637 0.482883C17.4732 -0.106029 18.1404 -0.155923 18.6571 0.331274C19.1484 0.79448 19.1093 1.51555 18.5554 2.06023C15.0122 5.54452 11.4683 9.02824 7.92253 12.5102C7.28948 13.1319 6.47839 13.1705 5.86402 12.5759C4.0418 10.8123 2.2274 9.04107 0.425577 7.25835C-0.256746 6.58325 -0.0924759 5.67113 0.731446 5.37957C1.30364 5.17707 1.7148 5.44153 2.0967 5.81508C3.47763 7.16581 4.8641 8.51136 6.25023 9.85721C6.80858 10.3993 6.85344 10.4055 7.42027 9.84607C10.112 7.18966 12.7984 4.5283 15.5156 1.83855Z" fill="#1E1E1E"/>
</svg>
