<svg width="174" height="174" viewBox="0 0 174 174" fill="none" xmlns="http://www.w3.org/2000/svg">
<path d="M90.5392 63.6158C92.1865 68.0793 92.682 72.6664 92.2823 77.2816C90.9342 92.848 79.6881 104.789 65.5186 107.537C55.4661 109.487 46.3702 107.092 38.4289 100.618C31.7529 95.1753 27.9086 88.0063 26.5237 79.6052C25.1817 71.4643 26.8249 63.8111 31.2126 56.7819C36.2811 48.662 43.6807 43.9707 52.9769 42.2575C61.0458 40.7705 68.798 41.8605 76.0104 45.9064C82.2814 49.4242 86.6996 54.6362 89.5729 61.1913C89.913 61.9673 90.2001 62.7665 90.5392 63.6158ZM62.2372 54.6911C61.7286 55.0418 61.0242 55.159 61.0427 56.0448C61.0864 58.1378 61.0616 60.2323 61.0518 62.3262C61.0501 62.6962 61.1583 62.9518 61.4737 63.1801C64.4291 65.3193 67.375 67.4715 70.3158 69.6307C70.663 69.8856 70.9705 69.9546 71.408 69.8307C73.7425 69.1696 76.0831 68.5278 78.4353 67.9335C79.1424 67.7548 79.4635 67.3772 79.6146 66.6932C80.3379 63.4179 81.0574 60.1409 81.8583 56.8843C82.0715 56.0174 81.845 55.4463 81.2847 54.8388C79.0184 52.3811 76.391 50.3997 73.4859 48.7637C72.9545 48.4644 72.5206 48.4717 71.9993 48.7896C68.788 50.7477 65.5619 52.6814 62.2372 54.6911ZM43.702 49.5732C41.0739 51.0828 38.8391 53.0649 36.8266 55.3111C36.4696 55.7095 36.1531 56.0984 36.321 56.7408C37.1978 60.0962 38.0432 63.46 38.8749 66.8269C39.0133 67.3873 39.2859 67.6861 39.8515 67.8395C42.1116 68.4525 44.3675 69.0838 46.6094 69.7599C47.2512 69.9535 47.7226 69.8283 48.2448 69.4534C51.0702 67.4247 53.9078 65.4127 56.7601 63.4221C57.2401 63.0871 57.3967 62.7043 57.3904 62.1447C57.3676 60.1363 57.3616 58.1271 57.3953 56.119C57.4053 55.5255 57.1889 55.2095 56.6773 54.9267C53.4858 53.1621 50.2788 51.4205 47.1515 49.5468C45.9536 48.829 44.937 48.5613 43.702 49.5732ZM80.2864 92.7593C80.8523 92.7561 81.4195 92.7278 81.9836 92.7576C82.4609 92.7828 82.7817 92.6025 83.0525 92.2195C85.2471 89.1162 86.8214 85.7268 87.7828 82.0506C87.8871 81.6516 87.8803 81.3101 87.6007 80.9467C85.2381 77.8764 82.892 74.7934 80.5506 71.7068C80.2539 71.3156 79.9385 71.2078 79.4541 71.3437C77.1168 71.9993 74.7752 72.6407 72.425 73.2477C71.856 73.3946 71.5695 73.699 71.4021 74.2368C70.3865 77.4987 69.3602 80.7573 68.3159 84.01C68.1641 84.4827 68.1896 84.8544 68.4712 85.2781C69.974 87.5385 71.4572 89.8121 72.9274 92.0939C73.234 92.5699 73.5921 92.7824 74.1752 92.7729C76.1554 92.7405 78.1363 92.7587 80.2864 92.7593ZM33.7405 89.3733C34.3212 90.2768 34.9109 91.1746 35.4791 92.0858C35.7972 92.5959 36.2262 92.7748 36.8264 92.7692C39.4009 92.7449 41.9759 92.7453 44.5505 92.7715C45.0753 92.7768 45.3805 92.5795 45.6517 92.1587C47.1219 89.8777 48.6084 87.6073 50.098 85.339C50.295 85.039 50.385 84.7736 50.2631 84.399C49.1448 80.9621 48.0468 77.5187 46.947 74.0758C46.8057 73.6336 46.5396 73.3976 46.07 73.2706C43.7278 72.6374 41.3933 71.9753 39.0641 71.296C38.5287 71.1398 38.2038 71.2345 37.8584 71.7072C35.5724 74.8352 33.2557 77.9408 30.9378 81.0454C30.6945 81.3713 30.6527 81.6595 30.7527 82.0611C31.3863 84.6039 32.4075 86.9843 33.7405 89.3733ZM51.1394 98.9972C51.994 100.464 52.8709 101.919 53.6912 103.405C53.9835 103.934 54.3751 104.173 54.9449 104.268C58.0441 104.784 61.1284 104.71 64.2097 104.115C64.6368 104.032 64.9418 103.868 65.1496 103.489C66.7131 100.634 68.2794 97.781 69.851 94.9307C70.0301 94.6059 70.0707 94.3274 69.8446 93.9903C68.3468 91.7581 66.8576 89.5199 65.3861 87.2703C65.0977 86.8294 64.7301 86.717 64.24 86.7188C60.9837 86.7309 57.7274 86.7369 54.4712 86.716C53.8995 86.7124 53.5189 86.8901 53.2054 87.3721C51.8011 89.5311 50.3849 91.6827 48.9429 93.8165C48.6226 94.2904 48.6487 94.6655 48.9257 95.1324C49.6618 96.3734 50.3617 97.6359 51.1394 98.9972ZM57.4074 67.3525C55.2688 68.8861 53.1289 70.418 50.9927 71.9552C50.6299 72.2162 50.2602 72.4229 50.4639 73.0384C51.4936 76.1485 52.4834 79.2719 53.4706 82.396C53.6328 82.9093 53.9143 83.0993 54.4575 83.0957C57.6281 83.0742 60.7989 83.0726 63.9694 83.0941C64.5465 83.098 64.8464 82.8985 65.015 82.3478C65.9493 79.2959 66.8975 76.2482 67.8637 73.2062C68.0262 72.6945 67.9313 72.3906 67.4826 72.0687C65.2985 70.5019 63.144 68.8937 60.9726 67.3089C59.2577 66.0573 59.2536 66.0629 57.4074 67.3525ZM62.4216 50.2655C64.314 49.1242 66.2065 47.9829 68.0989 46.8415C68.0661 46.7259 68.0333 46.6102 68.0005 46.4946C62.0263 44.7465 56.0612 44.7837 50.0618 46.6762C50.2045 47.0874 50.4984 47.1719 50.7338 47.307C52.6205 48.3896 54.4986 49.4887 56.4105 50.5253C57.3922 51.0576 58.3144 52.1267 59.3843 51.9612C60.4206 51.801 61.3425 50.9016 62.4216 50.2655ZM34.3211 70.4338C35.4522 69.343 35.6413 68.1304 35.1399 66.6127C34.4808 64.6176 34.0604 62.5436 33.478 60.2721C30.4945 65.3016 29.4556 70.5103 30.0318 76.1295C31.4379 74.2637 32.8439 72.3979 34.3211 70.4338ZM88.6367 75.2195C88.8521 69.9147 87.7297 64.9436 84.9489 60.2215C84.8294 60.5829 84.7432 60.7884 84.6936 61.0024C84.1593 63.3086 83.6503 65.6209 83.0853 67.9194C82.962 68.4211 83.0414 68.7859 83.3435 69.1692C84.2011 70.2572 85.0459 71.3552 85.8897 72.454C86.7422 73.5641 87.5874 74.6799 88.431 75.7867C88.6652 75.6371 88.6089 75.4807 88.6367 75.2195ZM40.1311 96.3457C39.9201 96.3818 39.6766 96.2812 39.4662 96.5301C42.0858 99.1721 45.1205 101.14 48.6663 102.491C48.6356 102.29 48.6424 102.202 48.6089 102.134C47.696 100.279 46.5964 98.5289 45.5736 96.7355C45.351 96.3453 44.9749 96.3539 44.6059 96.3527C43.1621 96.3478 41.7182 96.3488 40.1311 96.3457ZM72.6486 97.5255C71.8061 99.0842 70.9637 100.643 70.0954 102.249C72.3258 101.96 78.3665 97.9192 79.1322 96.3434C77.5372 96.3434 75.9906 96.3993 74.4507 96.3221C73.5449 96.2768 72.9953 96.5795 72.6486 97.5255Z" fill="white"/>
<path d="M123.89 99.6209C125.015 100.033 125.307 100.415 125.29 101.525C125.255 103.729 124.89 105.906 124.693 108.096C124.521 110.006 124.3 111.911 124.102 113.819C123.836 116.371 123.572 118.924 123.303 121.477C123.121 123.215 122.912 124.951 122.755 126.692C122.688 127.442 122.413 128.033 121.688 128.267C120.94 128.509 120.239 128.371 119.676 127.749C117.968 125.859 116.224 124 114.553 122.077C114.026 121.471 113.722 121.394 113.084 121.957C103.24 130.655 93.3715 139.326 83.5083 148.003C82.2588 149.103 81.0896 149.055 79.9482 147.821C76.5069 144.1 73.077 140.369 69.6418 136.643C68.7477 135.673 68.7389 135.666 67.7294 136.545C60.4289 142.906 53.1299 149.268 45.8361 155.636C45.2821 156.119 44.7187 156.529 43.9373 156.31C43.3039 156.132 42.7759 155.77 42.6394 155.097C42.4892 154.356 42.5603 153.666 43.2208 153.098C46.1171 150.604 48.9875 148.081 51.8654 145.566C56.7258 141.319 61.5995 137.087 66.4382 132.815C68.8484 130.688 69.2156 130.69 71.3718 133.04C74.6645 136.627 77.9982 140.178 81.2838 143.772C81.825 144.364 82.1601 144.405 82.7802 143.852C88.6761 138.596 94.5967 133.368 100.52 128.142C104.447 124.678 108.385 121.226 112.33 117.783C113.67 116.613 114.473 116.672 115.66 117.955C116.757 119.139 117.844 120.332 118.943 121.513C119.129 121.713 119.264 121.988 119.659 122.055C119.799 120.795 119.943 119.548 120.075 118.299C120.343 115.775 120.602 113.25 120.869 110.726C121.11 108.454 121.355 106.183 121.599 103.911C121.651 103.423 121.463 103.158 120.942 103.161C120.121 103.167 119.3 103.154 118.479 103.154C113.523 103.155 108.567 103.156 103.611 103.166C103.195 103.167 102.767 103.094 102.308 103.266C102.373 103.636 102.661 103.836 102.886 104.064C104.079 105.273 105.29 106.466 106.482 107.676C107.449 108.659 107.414 109.778 106.385 110.693C100.714 115.734 95.0353 120.767 89.3652 125.81C87.4823 127.484 85.6188 129.181 83.7442 130.864C82.3937 132.078 81.5571 132.041 80.3767 130.678C77.0581 126.849 73.7344 123.023 70.4532 119.161C69.9241 118.538 69.5985 118.588 69.0333 119.067C60.3923 126.387 51.8494 133.821 43.3264 141.277C42.8441 141.699 42.3353 142.059 41.6733 142.028C40.9251 141.994 40.3499 141.588 40.121 140.896C39.8936 140.209 39.9229 139.501 40.5545 138.951C42.3056 137.427 44.0404 135.884 45.7926 134.362C51.0913 129.757 56.3966 125.16 61.6963 120.556C63.9191 118.626 66.1307 116.682 68.3545 114.752C69.5735 113.694 70.5851 113.722 71.6589 114.942C74.4825 118.151 77.2673 121.395 80.0708 124.622C80.6833 125.327 81.3172 126.014 81.9253 126.722C82.2332 127.081 82.5002 127.08 82.85 126.768C86.947 123.111 91.0527 119.463 95.1535 115.81C97.3732 113.833 99.5774 111.838 101.812 109.878C102.406 109.357 102.571 109.009 101.903 108.352C100.128 106.605 98.4306 104.778 96.726 102.961C95.8296 102.006 95.7352 101.28 96.3243 100.37C96.8216 99.6025 97.618 99.5345 98.427 99.5342C102.533 99.5326 106.639 99.5356 110.746 99.5356C114.739 99.5356 118.731 99.5322 122.724 99.5356C123.09 99.5359 123.456 99.5749 123.89 99.6209Z" fill="#F7EA3E"/>
<path d="M150.867 68.4065C148.365 76.7743 143.236 82.8192 135.408 86.55C131.513 88.4061 127.371 89.2714 123.084 89.2149C109.349 89.0335 98.6467 79.5826 95.8 67.6802C93.148 56.5915 96.0206 46.9658 104.425 39.1681C107.845 35.9947 111.954 33.9723 116.509 32.9209C117.282 32.7423 117.673 32.4401 117.528 31.6235C117.518 31.5686 117.528 31.5104 117.526 31.4538C117.512 30.8322 117.667 30.1382 117.44 29.6081C117.179 29.0007 116.345 29.2203 115.779 29.0165C113.928 28.3489 112.922 26.9866 112.664 25.1263C112.506 23.9894 112.503 22.7904 112.675 21.6565C113.07 19.0556 114.866 17.558 117.666 17.5101C121.544 17.4437 125.426 17.4297 129.303 17.5111C132.377 17.5757 134.13 19.4964 134.125 22.5676C134.124 23.5007 134.219 24.4574 134.05 25.3621C133.643 27.5365 132.257 28.8455 130.091 29.2493C129.507 29.3582 129.327 29.5754 129.363 30.1266C129.398 30.6623 129.41 31.2058 129.36 31.7392C129.298 32.4043 129.578 32.7176 130.21 32.859C133.336 33.5581 136.21 34.855 138.919 36.5462C139.175 36.7063 139.427 37.0813 139.816 36.7984C140.207 36.5138 140.129 36.1355 140.039 35.7244C139.813 34.6989 140.037 33.7369 140.684 32.9267C141.372 32.0638 142.162 31.2797 143.028 30.5944C144.524 29.4101 146.462 29.5216 147.818 30.8583C149.007 32.0307 150.176 33.2254 151.325 34.4368C153.107 36.3146 153.066 38.4495 151.239 40.2784C150.799 40.7191 150.343 41.1449 149.909 41.591C149.087 42.4342 148.114 42.8544 146.926 42.6958C146.613 42.654 146.287 42.571 146.112 42.9382C145.949 43.2798 146.27 43.4533 146.424 43.664C149.465 47.8256 151.182 52.5041 151.775 57.5951C152.197 61.2259 151.792 64.8091 150.867 68.4065ZM125.931 35.7545C124.012 35.5911 122.101 35.6182 120.19 35.8932C112.875 36.945 107.095 40.5145 102.859 46.5379C99.1881 51.7578 97.7546 57.5941 98.6513 63.9035C99.2355 68.014 100.76 71.8219 103.319 75.1383C109.64 83.3288 117.871 86.9941 128.16 85.0553C141.287 82.582 150.239 69.6059 147.945 56.598C146.491 48.3526 141.938 42.2765 134.551 38.3402C131.903 36.9292 129.043 36.1762 125.931 35.7545ZM122.259 21.1161C120.646 21.1177 119.032 21.1063 117.419 21.1258C116.486 21.1371 116.156 21.4793 116.122 22.4201C116.101 22.9854 116.111 23.5522 116.118 24.1181C116.131 25.2217 116.602 25.7119 117.718 25.7574C118.311 25.7816 118.906 25.7648 119.5 25.7648C122.614 25.7648 125.727 25.768 128.841 25.7619C130.16 25.7593 130.603 25.3007 130.611 23.9647C130.613 23.5118 130.619 23.0588 130.609 22.6061C130.586 21.4844 130.241 21.1266 129.137 21.1217C126.901 21.1118 124.665 21.1173 122.259 21.1161ZM146.366 38.0818C147.491 39.1512 147.474 39.1351 148.562 37.9943C148.993 37.5426 148.987 37.208 148.55 36.7823C147.78 36.032 147.048 35.243 146.289 34.4808C145.119 33.3051 145.132 33.3246 144.041 34.5483C143.63 35.0094 143.637 35.3378 144.075 35.7592C144.831 36.4842 145.548 37.2485 146.366 38.0818ZM121.046 31.4403C121.042 31.7911 121.152 32.0709 121.555 32.0737C122.952 32.0831 124.35 32.0773 125.736 32.0773C126.252 29.5121 126.082 29.2892 123.664 29.2848C123.467 29.2844 123.269 29.2819 123.072 29.2843C120.684 29.3131 121.084 29.0188 121.046 31.4403Z" fill="white"/>
<path d="M126.419 65.9634C121.915 68.1819 117.085 65.203 117.192 60.3362C117.283 56.2057 121.418 53.3756 125.447 54.7237C125.961 54.8956 126.242 54.8369 126.614 54.4637C129.292 51.7783 131.994 49.1173 134.689 46.4498C134.891 46.2508 135.091 46.0492 135.308 45.8683C136.196 45.1277 137.29 45.1463 137.976 45.9049C138.602 46.5987 138.541 47.7387 137.784 48.5035C135.655 50.6564 133.507 52.7915 131.369 54.9351C130.669 55.6363 129.987 56.3556 129.271 57.0397C128.913 57.3819 128.841 57.7052 129.047 58.1644C130.363 61.0868 129.094 64.576 126.419 65.9634ZM122.139 58.3046C120.951 59.1552 120.543 60.2034 120.948 61.3725C121.294 62.3733 122.503 63.2083 123.509 63.1407C124.641 63.0646 125.656 62.1709 125.911 60.9679C126.113 60.0155 125.691 59.2565 125.015 58.6406C124.197 57.8952 123.252 57.8226 122.139 58.3046Z" fill="#F7EA3E"/>
<path d="M102.407 59.1868C103.381 58.7213 104.358 58.8374 105.288 58.9799C106.076 59.1005 106.406 59.7735 106.423 60.5559C106.439 61.3459 105.96 62.0465 105.247 62.2215C104.471 62.4121 103.676 62.4267 102.9 62.2248C101.639 61.8965 101.358 60.3193 102.407 59.1868Z" fill="#F7EA3E"/>
<path d="M142.412 58.9032C142.802 58.9045 143.114 58.8933 143.425 58.9096C144.304 58.9555 144.894 59.5234 144.987 60.3999C145.074 61.2208 144.568 62.0273 143.786 62.2303C143.007 62.4325 142.21 62.4333 141.434 62.2178C140.678 62.008 140.221 61.2142 140.305 60.3435C140.379 59.5695 140.943 58.9996 141.738 58.9118C141.934 58.8901 142.134 58.9051 142.412 58.9032Z" fill="#F7EA3E"/>
<path d="M122.029 78.3865C122.649 77.6557 123.417 77.6222 124.163 77.8549C124.966 78.1058 125.204 78.8471 125.261 79.6042C125.328 80.4952 125.25 81.3738 124.397 81.927C123.802 82.3126 123.166 82.3218 122.564 81.9505C121.662 81.3946 121.599 80.4864 121.663 79.5641C121.689 79.1783 121.755 78.7786 122.029 78.3865Z" fill="#F7EA3E"/>
<path d="M121.933 39.916C122.481 39.1929 123.119 38.9183 123.965 39.1583C124.876 39.4167 125.179 40.1002 125.267 40.9338C125.308 41.3229 125.31 41.7189 125.2 42.1094C124.936 43.0532 124.267 43.5925 123.378 43.5572C122.521 43.5232 121.96 42.9836 121.729 42.0367C121.554 41.3224 121.596 40.6419 121.933 39.916Z" fill="#F7EA3E"/>
</svg>
