<svg width="170" height="170" viewBox="0 0 170 170" fill="none" xmlns="http://www.w3.org/2000/svg">
<path d="M81.4001 66.3495C98.493 88.4245 89.1373 119.316 62.6803 127.688C41.2246 134.477 18.7088 120.996 13.9641 99.2847C10.0059 81.1721 18.2541 64.1259 34.6675 56.1935C50.4411 48.5702 69.9367 52.7587 81.4001 66.3495ZM55.0003 77.1963C57.3625 78.962 59.8782 80.5597 62.0451 82.5392C64.3494 84.6442 66.5448 84.7337 69.3594 83.6702C74.5353 81.7147 74.5914 81.863 75.6679 76.412C77.403 67.626 77.1845 67.1989 69.7667 62.3813C68.217 61.3749 66.9259 61.3365 65.3454 62.226C62.631 63.7538 59.8247 65.118 57.062 66.5606C53.6224 68.3566 52.4478 73.5527 55.0003 77.1963ZM28.5916 110.65C33.1359 111.896 35.9546 110.153 38.3297 106.103C39.988 103.275 41.1478 101.018 39.4596 97.8742C38.6003 96.2744 38.1574 94.4053 37.7778 92.605C37.2973 90.3259 35.9429 89.3012 33.7805 88.66C27.1242 86.6863 27.1462 86.6121 22.9136 92.1435C17.6278 99.0513 17.7074 99.408 21.9608 107.168C23.4047 109.802 25.1256 111.151 28.5916 110.65ZM34.5526 61.7155C33.4165 62.4325 32.2789 63.1472 31.1444 63.8668C27.2101 66.3623 25.2488 69.1405 26.7261 74.4493C28.8509 82.0849 28.3349 82.2037 35.88 84.3411C37.1488 84.7006 38.0908 84.5219 39.1222 83.7217C41.7127 81.7121 44.3457 79.752 47.0349 77.8772C48.4157 76.9146 48.8137 75.737 48.9948 74.0864C49.4394 70.0358 48.4732 67.1915 44.1992 65.8112C41.8338 65.0474 39.719 63.5218 37.4644 62.3933C36.6595 61.9904 35.8914 61.3704 34.5526 61.7155ZM65.0072 106.27C65.6286 107.171 66.2478 108.073 66.8719 108.972C67.5788 109.99 68.1986 111.586 69.6678 111.047C72.974 109.834 77.0919 112.42 79.8028 108.977C81.8507 106.376 82.9536 103.241 84.0815 100.152C84.5633 98.8318 84.2801 97.7233 83.4134 96.6365C81.1568 93.8068 78.911 90.9658 76.7562 88.0587C75.8974 86.9001 75.0427 86.9586 73.7324 87.1785C68.3921 88.075 64.8498 90.6847 64.1149 96.3444C64.062 96.7523 63.9075 97.1753 63.697 97.53C61.8508 100.64 62.3495 103.427 65.0072 106.27ZM46.6455 124.278C48.0641 124.443 49.5007 124.833 50.8974 124.722C53.4021 124.523 56.3942 125.333 58.1775 123.038C60.1239 120.533 61.5347 117.611 63.1675 114.864C63.5188 114.273 63.8407 113.581 63.4341 112.955C61.7858 110.421 60.3197 107.703 58.301 105.497C56.9492 104.02 54.6059 104.906 52.7177 104.892C44.3131 104.83 44.3146 104.87 40.0329 112.166C39.7357 112.673 39.1858 113.221 39.5023 113.767C41.5846 117.359 42.9816 121.4 46.6455 124.278ZM43.3822 94.5599C45.6535 101.013 44.0361 99.8967 50.8962 100.013C51.3167 100.02 51.7377 100.023 52.1581 100.012C58.6782 99.8388 57.2964 101.192 59.5694 94.7419C61.8299 88.327 61.8397 88.3305 56.4328 84.3387C51.4544 80.6632 51.4544 80.6632 46.44 84.3248C41.308 88.0723 41.308 88.0723 43.3822 94.5599ZM60.613 58.8534C54.4772 56.1642 48.3365 57.2716 42.1031 58.8604C44.9654 60.6681 47.9069 62.1967 50.8601 63.7027C51.4501 64.0036 52.017 63.7195 52.5326 63.439C55.1794 61.9995 57.8171 60.5431 60.613 58.8534ZM85.2894 89.9537C85.2902 84.5997 83.9017 79.6427 81.1899 74.7536C78.2218 82.0775 79.3746 86.2813 85.2894 89.9537ZM20.8929 86.9188C25.0524 83.243 22.9575 79.1545 21.7816 74.5936C19.1152 79.7261 17.6179 84.5837 17.7571 90.1818C19.3702 89.3585 19.7778 88.0555 20.8929 86.9188ZM31.0087 115.798C30.3891 115.937 29.7568 115.357 29.0203 115.879C31.7401 118.152 34.4853 120.226 38.2477 121.602C36.4719 118.466 35.4825 115.225 31.0087 115.798ZM70.949 115.837C67.873 116.105 66.4277 117.564 65.8661 121.199C68.8642 119.82 71.5346 118.287 73.8096 115.831C72.8296 115.831 72.0868 115.831 70.949 115.837Z" fill="white"/>
<path d="M121.817 107.917C119.499 106.652 118.226 104.853 118.004 102.407C117.85 100.699 117.138 99.2963 116.387 97.7706C115.13 95.2174 115.013 92.2449 116.641 89.7931C117.876 87.9327 117.851 86.2825 117.339 84.3271C116.438 80.8859 114.453 78.1029 112.309 75.365C104.265 65.0922 103.698 51.5188 111.366 41.6292C118.718 32.1471 128.763 29.0504 140.215 31.8985C150.907 34.5577 157.786 41.5826 160.065 52.5452C161.792 60.8499 159.91 68.4272 154.558 75.0545C152.041 78.1717 149.87 81.4422 149.075 85.4501C148.791 86.883 148.805 88.1566 149.844 89.4662C151.599 91.6792 151.456 96.4445 149.694 98.6976C149.071 99.4954 148.88 100.293 148.798 101.235C148.57 103.834 147.992 106.263 145.279 107.479C144.697 107.74 144.473 108.277 144.239 108.838C142.174 113.785 138.443 116.5 133.089 116.4C127.504 116.296 123.866 113.225 121.817 107.917ZM144.13 68.6431C143.506 68.8917 142.874 69.3677 142.258 69.3497C139.502 69.2693 139.19 70.8448 139.263 73.102C139.395 77.2283 139.289 81.362 139.302 85.4925C139.306 86.5643 139.087 87.8381 140.784 87.8514C142.262 87.8631 143.994 88.2833 144.267 86.0241C144.953 80.3463 147.996 75.866 151.368 71.4691C155.217 66.45 156.869 60.7921 155.749 54.3962C154.202 45.564 149.021 39.7864 140.761 36.9311C132.381 34.0344 124.487 35.6164 117.882 41.4846C109.117 49.2726 108.181 62.1624 115.423 71.6674C118.731 76.0092 121.709 80.4701 122.412 86.019C122.692 88.2274 124.165 87.818 125.559 87.8736C127.323 87.9439 127.351 86.7828 127.347 85.5178C127.333 81.5559 127.227 77.589 127.39 73.6337C127.494 71.1164 127.113 69.6378 124.104 69.2206C120.85 68.7693 118.546 65.2603 118.759 62.1766C118.954 59.351 121.168 57.0219 124.079 56.5802C127.111 56.1201 129.769 58.0678 130.979 61.6578C131.22 62.3739 131.431 63.1044 131.591 63.8425C131.809 64.8478 132.424 65.2145 133.406 65.1913C134.301 65.1702 134.741 64.745 135.015 63.9016C135.482 62.4659 135.916 60.9829 136.645 59.676C138.344 56.6272 141.681 55.6983 144.678 57.2748C149.035 59.5665 148.935 65.1509 144.13 68.6431ZM121.605 92.7154C120.575 92.8553 120.102 93.4282 120.333 94.4597C120.512 95.2605 121.148 95.4698 121.876 95.47C129.456 95.4723 137.035 95.4733 144.615 95.4669C145.468 95.4662 146.1 95.1606 146.125 94.1718C146.154 93.0631 145.485 92.715 144.515 92.6974C144.009 92.6882 143.504 92.669 142.999 92.6694C136.008 92.6738 129.018 92.6809 121.605 92.7154ZM123.264 102.841C129.624 103.505 136 103.026 142.368 103.099C143.331 103.111 143.961 102.584 143.982 101.553C144.007 100.328 143.096 100.282 142.236 100.281C136.274 100.274 130.311 100.281 124.348 100.295C122.677 100.299 122.268 101.108 123.264 102.841ZM132.122 77.6665C132.129 80.2644 132.104 82.8629 132.159 85.4598C132.18 86.4697 131.829 87.8831 133.577 87.8077C135.122 87.7411 134.778 86.5212 134.766 85.541C134.727 82.4438 134.655 79.3461 134.68 76.2493C134.693 74.6638 135.041 73.0816 134.718 71.4916C134.558 70.7052 134.294 70.0035 133.31 70.0359C132.264 70.0703 132.157 70.8435 132.147 71.6317C132.125 73.475 132.129 75.3187 132.122 77.6665ZM131.721 111.432C135.429 111.948 137.836 110.838 138.831 108.136C135.109 108.136 131.397 108.136 127.391 108.136C128.345 110.012 129.677 110.87 131.721 111.432ZM142.941 63.2738C143.113 62.0876 142.753 61.0998 141.417 61.4643C139.895 61.8794 139.684 63.2023 139.894 64.6245C141.198 64.918 142.135 64.6264 142.941 63.2738ZM126.266 62.2152C125.733 61.4027 125.021 61.0823 124.167 61.6494C123.533 62.0711 123.46 62.7952 123.764 63.4325C124.338 64.6389 125.391 64.9007 126.56 64.8012C127.071 63.906 126.662 63.2356 126.266 62.2152Z" fill="#F7EA3E"/>
<path d="M105.191 36.8965C103.29 38.4454 101.529 39.8825 99.7539 41.3009C98.5332 42.2762 97.2574 42.4091 96.1582 41.1893C94.9677 39.8681 95.2914 38.4754 96.5033 37.4041C98.6259 35.5279 100.859 33.7771 103.385 31.6944C98.1614 30.4677 93.3461 30.435 88.544 31.2946C78.5418 33.0852 70.852 38.3331 65.5506 47.0317C65.3753 47.3192 65.1852 47.5979 65.0147 47.8881C64.2341 49.2176 63.1237 49.9526 61.6703 49.1231C60.1157 48.236 60.174 46.8105 60.9646 45.3919C63.7995 40.3046 67.6637 36.1412 72.4031 32.781C80.4167 27.0994 89.4714 25.5939 99.0441 26.1347C99.8435 26.1799 100.7 26.5274 101.638 25.8751C100.525 23.8615 98.6063 22.5869 97.1728 20.9004C96.1251 19.6678 94.7666 18.3252 96.3974 16.7796C97.9928 15.2675 99.6049 15.9558 101.022 17.3848C104.283 20.6722 107.604 23.8989 110.852 27.199C112.883 29.2635 112.808 30.5628 110.601 32.4581C108.878 33.9386 107.087 35.3401 105.191 36.8965Z" fill="white"/>
<path d="M75.3473 135.582C90.3064 140.109 105.238 133.166 113.106 122.194C111.354 122.482 109.913 122.712 108.474 122.955C106.81 123.237 105.532 122.669 105.23 120.974C104.939 119.345 106.045 118.503 107.535 118.229C111.008 117.59 114.482 116.955 117.969 116.405C119.736 116.126 120.994 116.902 121.216 118.746C121.752 123.188 121.614 127.653 121.303 132.1C121.205 133.511 120.215 134.365 118.665 134.2C117.188 134.042 116.722 133.042 116.713 131.719C116.703 130.064 116.711 128.408 116.711 126.35C114.001 128.799 111.783 131.09 109.283 133.013C96.7815 142.628 83.2113 144.351 68.6695 138.208C67.8968 137.882 67.1829 137.418 66.4325 137.037C64.8637 136.238 63.9991 134.976 64.881 133.345C65.758 131.723 67.2311 132.126 68.6237 132.861C70.7096 133.961 72.8098 135.041 75.3473 135.582Z" fill="white"/>
<path d="M157.02 33.2051C155.492 33.5593 154.545 33.0023 153.982 31.8007C153.428 30.6185 154.021 29.6516 154.77 28.8244C156.18 27.2664 157.615 25.726 159.123 24.2638C160.209 23.2103 161.513 22.9443 162.733 24.0564C163.991 25.2037 163.705 26.518 162.719 27.6406C161.005 29.5918 159.369 31.6351 157.02 33.2051Z" fill="#F7EA3E"/>
<path d="M131.018 23.4655C130.945 20.8043 130.886 18.3625 130.923 15.9222C130.948 14.2365 131.502 12.8986 133.558 13.0091C135.5 13.1134 135.789 14.4425 135.773 16.019C135.751 18.1241 135.743 20.2299 135.773 22.3348C135.793 23.7045 135.512 24.9095 134.037 25.3301C132.574 25.7476 131.609 25.0506 131.018 23.4655Z" fill="#F7EA3E"/>
</svg>
