<svg width="172" height="162" viewBox="0 0 172 162" fill="none" xmlns="http://www.w3.org/2000/svg">
<path d="M46.2389 90.2975C50.0052 89.8204 53.6653 90.1728 57.3164 90.0402C57.9144 90.0184 58.5758 90.2564 59.1079 89.7427C59.1722 88.9927 58.5064 88.8122 58.1062 88.4629C50.0125 81.3986 44.0433 73.0108 42.2014 62.2184C39.8478 48.4272 43.1294 36.0645 52.1511 25.3035C59.0153 17.1161 67.8524 12.2369 78.3325 10.573C86.899 9.21282 95.2727 10.2728 103.302 13.7687C117.864 20.1091 126.412 31.3448 129.014 46.7092C131.302 60.2135 128.011 72.5595 118.722 83.0272C116.062 86.0247 113.119 88.644 109.686 90.7075C108.917 91.1697 108.447 91.6767 108.462 92.6781C108.517 96.4375 108.525 100.199 108.462 103.958C108.441 105.197 108.983 105.428 110.067 105.423C116.867 105.392 123.666 105.406 130.466 105.412C133.331 105.415 134.22 106.301 134.223 109.142C134.228 114.521 134.267 119.901 134.199 125.279C134.182 126.681 134.671 127.145 136.02 127.047C137.216 126.961 138.424 127.026 139.627 127.036C141.831 127.054 142.972 128.167 143 130.415C143.035 133.13 143.003 135.846 143.012 138.561C143.02 141.399 142.764 141.122 145.666 141.141C147.445 141.152 149.223 141.124 151.001 141.151C152.887 141.179 153.982 142.245 154 144.012C154.017 145.698 152.832 146.895 151.044 146.984C150.626 147.005 150.207 146.992 149.789 146.992C106.584 146.993 63.3789 146.994 20.1741 146.994C19.7034 146.994 19.2293 147.018 18.7628 146.971C17.1324 146.808 15.9339 145.467 16.0028 143.915C16.0759 142.267 17.2266 141.171 18.979 141.152C21.3325 141.125 23.6875 141.101 26.0398 141.16C27.1913 141.188 27.6235 140.777 27.6045 139.616C27.5541 136.536 27.5776 133.454 27.5955 130.373C27.6092 128.041 28.6125 127.043 30.945 127.036C34.9202 127.022 38.8962 126.985 42.8704 127.05C44.1943 127.072 44.5669 126.588 44.5626 125.317C44.5265 114.768 44.5561 104.219 44.5325 93.6695C44.5294 92.2676 44.7877 91.078 46.2389 90.2975ZM101.843 94.6824C94.1891 97.3638 86.3738 98.427 78.2857 97.2118C76.115 96.8857 74.0416 95.9846 71.8597 95.955C65.1673 95.864 58.4727 95.938 51.7792 95.9031C50.676 95.8974 50.3301 96.309 50.3339 97.3767C50.3672 106.775 50.3719 116.173 50.3562 125.571C50.3544 126.627 50.6988 127.047 51.8092 127.045C68.2819 127.019 84.7547 127.019 101.227 127.043C102.338 127.045 102.672 126.622 102.67 125.564C102.65 115.644 102.669 105.723 102.653 95.8031C102.652 95.3749 102.964 94.6601 101.843 94.6824ZM46.3764 141.144C75.4602 141.145 104.544 141.145 133.628 141.145C134.256 141.145 134.888 141.097 135.51 141.153C136.71 141.263 137.238 140.823 137.166 139.56C137.083 138.102 137.148 136.636 137.145 135.174C137.141 132.8 137.14 132.794 134.731 132.794C108.001 132.795 81.2715 132.798 54.5417 132.799C48.1077 132.8 41.6735 132.826 35.2399 132.776C33.903 132.765 33.3436 133.146 33.4329 134.557C33.5415 136.274 33.5077 138.004 33.4422 139.725C33.3998 140.84 33.8546 141.17 34.9208 141.158C38.6342 141.115 42.3485 141.143 46.3764 141.144ZM61.6402 23.9173C60.0422 25.1815 58.4707 26.4703 57.0729 27.9654C56.3654 28.7222 56.1441 29.4967 56.3854 30.5133C57.3825 34.7131 58.3376 38.923 59.2884 43.1336C59.4959 44.0521 60.0011 44.5315 60.9369 44.7509C62.814 45.191 64.6882 45.6708 66.5193 46.2693C67.7741 46.6794 68.7107 46.3528 69.6943 45.5903C72.543 43.3821 75.4095 41.1945 78.3218 39.0711C82.9283 35.7124 82.9267 35.7375 82.8584 30.0864C82.8471 29.1464 82.58 28.5371 81.7435 28.0581C78.8424 26.3968 76.0447 24.5431 73.0815 23.0047C66.0695 19.3642 68.696 19.1069 61.6402 23.9173ZM108.478 23.1479C107.425 22.472 106.356 21.8204 105.324 21.1141C104.117 20.2877 102.994 20.2738 101.708 21.0528C98.8535 22.782 96.0647 24.7255 93.0018 25.9802C89.0194 27.6116 87.6543 30.2289 88.3512 34.3019C88.5013 35.1794 88.6555 35.8508 89.3988 36.4109C93.6908 39.6449 97.9624 42.9061 102.22 46.1851C102.864 46.6811 103.438 46.7874 104.227 46.5353C106.111 45.933 108.019 45.3916 109.941 44.9223C111.003 44.663 111.489 44.055 111.718 43.0367C112.685 38.7282 113.671 34.4237 114.707 30.1311C114.891 29.3696 114.766 28.8438 114.226 28.3107C112.443 26.5523 110.732 24.7171 108.478 23.1479ZM76.6907 64.6618C76.9595 65.5918 77.2299 66.375 78.5223 66.3566C83.1692 66.2904 87.8177 66.3115 92.4653 66.3425C93.466 66.3491 93.9436 65.9575 94.2518 65.0075C95.6331 60.7495 97.0607 56.506 98.5311 52.2779C98.8608 51.3296 98.6651 50.7987 97.8627 50.1994C94.2277 47.4846 90.6219 44.7291 87.0603 41.9192C86.0795 41.1454 85.347 41.0736 84.327 41.8508C80.6345 44.6645 76.9043 47.4304 73.1392 50.1465C72.1454 50.8633 72.0222 51.5543 72.427 52.6549C73.8646 56.5631 75.2125 60.5042 76.6907 64.6618ZM104.235 53.5528C102.617 58.1756 101.002 62.7992 99.3791 67.4204C99.1312 68.1264 98.9634 68.7632 99.5086 69.4673C101.074 71.489 102.581 73.5558 104.099 75.6136C104.485 76.137 104.925 76.2523 105.585 76.161C108.678 75.7329 111.773 75.2718 114.883 75.0321C117.063 74.864 118.504 74.0439 119.449 71.9961C120.544 69.6237 121.597 67.25 122.395 64.7615C122.615 64.0738 122.627 63.5173 122.179 62.871C119.382 58.8363 116.415 54.9289 113.436 51.0292C112.98 50.4321 112.539 50.1472 111.721 50.3929C109.676 51.0071 107.599 51.516 105.534 52.0647C104.87 52.2412 104.414 52.6094 104.235 53.5528ZM60.117 50.4986C58.8472 49.9609 58.0442 50.4318 57.2591 51.5205C54.5757 55.2414 51.8132 58.9063 49.0289 62.553C48.4946 63.2528 48.327 63.9063 48.5655 64.7121C49.5192 67.9342 50.9768 70.9179 52.8151 73.7253C53.2489 74.3877 53.806 74.6364 54.6147 74.7358C58.0193 75.1545 61.4139 75.6597 64.8043 76.1834C65.7854 76.335 66.4768 76.1508 67.0784 75.286C68.3873 73.4044 69.7732 71.5748 71.1704 69.7567C71.8101 68.9242 71.8596 68.1353 71.5078 67.1506C70.1946 63.475 68.7701 59.8224 67.7579 56.0618C66.9755 53.1551 65.5171 51.4343 62.4585 51.1537C61.7456 51.0883 61.0563 50.7667 60.117 50.4986ZM75.2529 85.1654C76.6083 87.0171 77.9686 88.8653 79.3157 90.7229C79.6643 91.2036 80.0292 91.5626 80.6881 91.6226C83.0801 91.8403 85.485 92.1436 87.8698 91.8735C89.1323 91.7305 90.6309 92.1303 91.6206 90.8235C94.2356 87.3705 96.6766 83.797 99.0957 80.2068C99.5489 79.5342 99.5248 78.99 99.0313 78.3729C97.6306 76.6217 96.2435 74.8593 94.8749 73.083C94.4493 72.5306 93.9226 72.3335 93.2496 72.3345C88.0259 72.3426 82.8022 72.3448 77.5786 72.3285C76.7812 72.326 76.1888 72.5808 75.7145 73.2422C74.4076 75.0647 73.0832 76.8756 71.7218 78.6577C71.2668 79.2533 71.2467 79.6993 71.7118 80.3068C72.8844 81.8385 73.9905 83.421 75.2529 85.1654ZM128.414 121.034C128.414 118.265 128.386 115.496 128.43 112.728C128.446 111.68 128.118 111.23 126.996 111.238C121.293 111.277 115.59 111.268 109.888 111.247C108.92 111.243 108.46 111.53 108.47 112.588C108.508 116.923 108.503 121.259 108.473 125.595C108.467 126.57 108.779 127.036 109.816 127.033C115.572 127.012 121.327 127.016 127.082 127.035C128.01 127.038 128.421 126.667 128.406 125.734C128.383 124.272 128.409 122.809 128.414 121.034ZM95.3006 17.0096C88.5335 15.1211 81.8183 15.3217 74.836 17.3857C77.1206 19.0532 79.3976 20.107 81.4718 21.4653C84.2064 23.2559 86.7363 23.628 89.361 21.4154C89.6341 21.1852 89.999 21.0652 90.3159 20.8847C92.0362 19.9046 93.7577 18.9267 95.4719 17.9361C95.9087 17.6838 96.3778 17.3889 95.3006 17.0096ZM117.832 47.3371C119.747 49.9135 121.662 52.4899 123.577 55.0663C124.276 48.2766 122.862 42.0608 119.351 36.2847C118.521 39.1524 117.936 42.0359 117.202 44.8808C116.961 45.814 117.091 46.4914 117.832 47.3371ZM53.4647 42.8962C52.9157 40.709 52.4777 38.4892 51.6138 36.1218C48.254 42.1354 46.8643 48.2797 47.3585 55.2403C49.1488 52.8263 50.6372 50.6398 52.3165 48.6108C53.6989 46.9404 54.545 45.2813 53.4647 42.8962ZM103.358 84.35C102.283 85.8059 101.207 87.2618 99.9103 89.016C105.059 87.4883 108.917 84.6508 112.568 81.1911C111.835 81.1911 111.303 81.1102 110.804 81.2047C108.17 81.7038 104.997 80.9032 103.358 84.35ZM60.3503 82.8206C63.3184 85.3556 66.4693 87.5719 70.3903 88.5418C69.0176 86.36 67.5251 84.3061 66.0099 82.2692C65.8682 82.0787 65.5939 81.9033 65.3627 81.8757C63.3154 81.6306 61.264 81.4206 58.8961 81.166C59.4755 81.8379 59.8355 82.2554 60.3503 82.8206Z" fill="#F7EA3E"/>
</svg>
