<svg width="42" height="42" viewBox="0 0 42 42" fill="none" xmlns="http://www.w3.org/2000/svg">
<g clip-path="url(#clip0_24_1023)">
<path d="M18.2028 25.044L25.077 21.0081L18.2028 16.9722V25.044Z" fill="#1E1E1E"/>
<path d="M38.7188 0H3.28125C1.46836 0 0 1.46836 0 3.28125V38.7188C0 40.5316 1.46836 42 3.28125 42H38.7188C40.5316 42 42 40.5316 42 38.7188V3.28125C42 1.46836 40.5316 0 38.7188 0ZM31.5 24.757C31.5 28.3746 27.8824 28.3746 27.8824 28.3746H14.1176C10.5 28.3746 10.5 24.757 10.5 24.757V17.2512C10.5 13.6336 14.1176 13.6336 14.1176 13.6336H27.8824C31.5 13.6336 31.5 17.2512 31.5 17.2512V24.757Z" fill="#1E1E1E"/>
</g>
<defs>
<clipPath id="clip0_24_1023">
<rect width="42" height="42" fill="white"/>
</clipPath>
</defs>
</svg>
