<svg width="53" height="59" viewBox="0 0 53 59" fill="none" xmlns="http://www.w3.org/2000/svg">
<mask id="path-1-inside-1_14_149" fill="white">
<path d="M52.5176 38.7158H52.5117C52.2639 49.7366 40.606 58.6123 26.2588 58.6123C11.9116 58.6123 0.253685 49.7366 0.00585938 38.7158H0V0H52.5176V38.7158Z"/>
</mask>
<path d="M52.5176 38.7158H52.5117C52.2639 49.7366 40.606 58.6123 26.2588 58.6123C11.9116 58.6123 0.253685 49.7366 0.00585938 38.7158H0V0H52.5176V38.7158Z" fill="white"/>
<path d="M52.5176 38.7158V39.7158H53.5176V38.7158H52.5176ZM52.5117 38.7158V37.7158H51.534L51.512 38.6933L52.5117 38.7158ZM26.2588 58.6123L26.2588 59.6123H26.2588V58.6123ZM0.00585938 38.7158L1.00561 38.6933L0.983625 37.7158H0.00585938V38.7158ZM0 38.7158H-1V39.7158H0V38.7158ZM0 0V-1H-1V0H0ZM52.5176 0H53.5176V-1H52.5176V0ZM52.5176 38.7158V37.7158H52.5117V38.7158V39.7158H52.5176V38.7158ZM52.5117 38.7158L51.512 38.6933C51.2813 48.9533 40.3097 57.6123 26.2588 57.6123V58.6123V59.6123C40.9022 59.6123 53.2465 50.52 53.5115 38.7383L52.5117 38.7158ZM26.2588 58.6123L26.2588 57.6123C12.2078 57.6123 1.23632 48.9533 1.00561 38.6933L0.00585938 38.7158L-0.993888 38.7383C-0.728953 50.52 11.6154 59.6123 26.2588 59.6123L26.2588 58.6123ZM0.00585938 38.7158V37.7158H0V38.7158V39.7158H0.00585938V38.7158ZM0 38.7158H1V0H0H-1V38.7158H0ZM0 0V1H52.5176V0V-1H0V0ZM52.5176 0H51.5176V38.7158H52.5176H53.5176V0H52.5176Z" fill="#1E1E1E" mask="url(#path-1-inside-1_14_149)"/>
<path d="M44.6357 23.7338C46.0259 23.7339 47.3981 23.7339 48.7851 23.7339C48.7851 23.8469 48.7851 23.9442 48.7851 24.0503C33.8989 23.9998 19.0163 23.9493 4.12255 23.8987C4.12255 23.799 4.12255 23.7066 4.12255 23.5889C17.6214 23.6371 31.1195 23.6854 44.6357 23.7338Z" fill="#1E1E1E"/>
<path d="M29.5639 21.4937C31.6554 15.1037 33.7424 8.72729 35.8304 2.3477C38.0647 2.3477 40.2899 2.3477 42.5263 2.3477C41.6375 8.92694 40.7497 15.4983 39.8614 22.0727C38.605 22.0727 37.3667 22.0727 36.1117 22.0727C36.2646 21.0074 36.4166 19.9488 36.5709 18.8742C36.1704 18.8742 35.7802 18.8742 35.3901 18.8742C35.047 18.8742 34.7037 18.8818 34.3611 18.8705C34.2214 18.8659 34.1626 18.9125 34.1239 19.0435C33.8441 19.9908 33.5573 20.9361 33.2724 21.8818C33.2535 21.9446 33.2309 22.0063 33.2086 22.0726C31.9364 22.0726 30.6676 22.0726 29.3764 22.0726C29.4395 21.8775 29.4993 21.6924 29.5639 21.4937ZM37.3245 13.5339C37.6937 10.9227 38.0628 8.31147 38.431 5.70733C38.2838 5.65713 38.2346 5.72046 38.2025 5.82749C37.7692 7.27297 37.3357 8.71838 36.8988 10.1628C36.4585 11.6183 36.0136 13.0725 35.5723 14.5278C35.4526 14.9225 35.3387 15.3189 35.2193 15.7241C35.8239 15.7241 36.4116 15.7241 37.0114 15.7241C37.1131 15.0004 37.214 14.2824 37.3245 13.5339Z" fill="#1E1E1E"/>
<path d="M14.3998 12.3379C13.9576 11.7541 13.4875 11.2055 13.173 10.5492C12.6701 9.49966 12.5881 8.40893 12.847 7.285C13.0786 6.27919 13.4255 5.31895 14.0207 4.46495C14.8429 3.28505 15.9432 2.523 17.3746 2.26651C18.5312 2.05927 19.6747 2.08767 20.7852 2.4983C21.7102 2.84034 22.2504 3.52406 22.4551 4.48196C22.651 5.39866 22.5628 6.30929 22.4023 7.21852C22.3648 7.43093 22.3169 7.6415 22.2761 7.85336C22.2594 7.93977 22.2269 7.98435 22.1233 7.98399C20.8414 7.97947 19.5594 7.98031 18.2775 7.97924C18.2665 7.97923 18.2555 7.97217 18.2241 7.9614C18.2899 7.65639 18.3564 7.34905 18.4225 7.04163C18.459 6.87195 18.5025 6.70333 18.5296 6.53213C18.6096 6.02627 18.3308 5.7358 17.8174 5.78299C17.0922 5.84966 16.6938 6.34496 16.7051 7.15382C16.7129 7.71123 16.9563 8.17141 17.2914 8.59133C17.9955 9.47378 18.7175 10.3422 19.4102 11.2334C19.841 11.7878 20.2207 12.3776 20.4369 13.0585C20.6875 13.8479 20.7208 14.6529 20.6055 15.4624C20.4467 16.5768 20.1286 17.6497 19.6727 18.6794C19.2732 19.5816 18.7632 20.4116 18.0149 21.0724C17.4322 21.5869 16.7519 21.9158 15.9948 22.0886C14.9158 22.3348 13.8362 22.3112 12.759 22.0836C12.2668 21.9796 11.8057 21.7926 11.4067 21.4788C10.853 21.0434 10.5798 20.4509 10.4668 19.7712C10.2989 18.7617 10.4562 17.773 10.6628 16.789C10.7944 16.1618 10.9484 15.5392 11.0812 14.9123C11.1152 14.7519 11.1675 14.69 11.348 14.6917C12.4974 14.7024 13.647 14.6971 14.7965 14.6971C14.8624 14.6971 14.9282 14.6971 15.0198 14.6971C14.95 14.9994 14.8826 15.288 14.8168 15.577C14.6718 16.2136 14.5152 16.848 14.3902 17.4886C14.3488 17.7007 14.3666 17.9323 14.3986 18.1489C14.4413 18.4384 14.6542 18.6012 14.9508 18.6215C15.498 18.6588 15.877 18.4729 16.0768 17.9702C16.4588 17.0094 16.65 16.0151 16.2686 15.0086C16.1372 14.662 15.9176 14.341 15.698 14.0373C15.2829 13.4634 14.8387 12.9104 14.3998 12.3379Z" fill="#1E1E1E"/>
<path d="M27.4913 8.88969C27.4059 9.25961 27.3244 9.61497 27.239 9.98748C28.4845 9.98748 29.7102 9.98748 30.9586 9.98748C30.6744 11.2353 30.3942 12.4653 30.1113 13.7076C28.8715 13.7076 27.634 13.7076 26.3836 13.7076C26.032 15.2143 25.6827 16.7111 25.3271 18.2352C26.714 18.2352 28.0811 18.2352 29.4649 18.2352C29.1701 19.5284 28.8813 20.795 28.5907 22.0696C25.872 22.0696 23.1548 22.0696 20.4267 22.0696C21.9448 15.4882 23.4606 8.9173 24.9759 2.34825C27.6222 2.34825 30.2509 2.34825 32.8871 2.34825C32.5974 3.61589 32.3097 4.87515 32.0208 6.13966C30.7159 6.13966 29.4288 6.13966 28.1308 6.13966C27.9179 7.05597 27.7066 7.96555 27.4913 8.88969Z" fill="#1E1E1E"/>
<path d="M37.3197 13.5491C37.214 14.2824 37.1131 15.0004 37.0114 15.7241C36.4116 15.7241 35.8239 15.7241 35.2193 15.7241C35.3387 15.3189 35.4526 14.9225 35.5723 14.5278C36.0136 13.0725 36.4585 11.6183 36.8988 10.1628C37.3357 8.71838 37.7692 7.27297 38.2025 5.82749C38.2346 5.72046 38.2838 5.65713 38.431 5.70733C38.0628 8.31147 37.6937 10.9227 37.3197 13.5491Z" fill="white"/>
<path d="M26.408 42.1066C26.3658 42.0625 26.3168 42.0319 26.305 41.9907C26.2867 41.9264 26.2684 41.8402 26.2972 41.7907C26.325 41.743 26.4202 41.6958 26.4727 41.7074C26.8391 41.7887 27.1998 41.8709 27.4758 42.1731C27.5972 42.306 27.7933 42.3819 27.9681 42.4525C28.194 42.5437 28.3318 42.794 28.1875 42.9919C27.7942 43.531 27.7953 44.1504 27.7737 44.7681C27.7563 45.2662 27.7706 45.7681 27.5836 46.2428C27.5178 46.4097 27.4179 46.5638 27.3583 46.7325C27.3083 46.874 27.266 47.0288 27.2688 47.1768C27.2841 47.9684 27.3314 48.7597 27.3337 49.5512C27.3352 50.0328 27.5288 50.2938 28.0143 50.3486C28.2232 50.3723 28.436 50.3805 28.6396 50.4277C28.8702 50.481 29.1065 50.5436 29.3133 50.653C29.4568 50.7288 29.5909 50.8717 29.6673 51.0171C30.1331 51.9037 30.584 52.7983 31.0341 53.6931C31.2161 54.0548 31.53 54.2721 31.8552 54.4808C31.9918 54.5684 32.1356 54.6458 32.2673 54.74C32.3928 54.8299 32.5364 54.9205 32.5133 55.1077C32.4989 55.2247 32.2647 55.3845 32.0851 55.396C31.8773 55.4092 31.6858 55.4045 31.4977 55.2504C31.3236 55.1078 31.0828 55.0485 30.8776 54.9408C30.7936 54.8967 30.6926 54.8367 30.6572 54.758C30.5745 54.5737 30.5434 54.3661 30.4602 54.182C30.3777 53.9996 30.2773 53.8172 30.1487 53.6653C29.8927 53.3628 29.6164 53.077 29.3402 52.7925C29.1059 52.5511 28.9967 52.265 28.9743 51.9344C28.9539 51.6352 28.9204 51.5929 28.6253 51.6093C28.1513 51.6356 27.675 51.6649 27.207 51.739C26.8876 51.7895 26.5805 51.9183 26.2234 52.0254C26.3361 52.0852 26.4254 52.1311 26.5134 52.1794C26.7861 52.3289 27.0722 52.4236 27.3882 52.4306C27.4568 52.4322 27.5535 52.4911 27.5861 52.5512C27.7108 52.781 27.7086 53.0249 27.598 53.2619C27.5393 53.3878 27.4381 53.4009 27.3687 53.2864C27.2527 53.0949 27.0689 53.0273 26.8697 53.0036C26.1786 52.9213 25.5437 52.6738 24.9327 52.3581C24.6333 52.2034 24.3353 52.1549 23.9947 52.2021C23.7607 52.2344 23.5112 52.1522 23.2683 52.1234C23.1371 52.1078 23.0055 52.0946 22.8738 52.0846C22.6793 52.0698 22.517 52.0622 22.3692 52.27C22.2725 52.4061 22.0301 52.4459 21.8453 52.5047C21.8183 52.5133 21.6998 52.382 21.7066 52.3255C21.7459 51.9992 21.6215 51.768 21.3788 51.5547C21.1754 51.3759 21.2067 51.1093 21.2347 50.8599C21.2561 50.6701 21.2917 50.4772 21.2772 50.289C21.255 50.0021 21.0569 49.8181 20.8273 49.6707C20.5866 49.5162 20.4088 49.3123 20.3082 49.0434C20.1729 48.6816 20.2952 48.3273 20.6394 48.0851C20.9618 47.8581 21.2436 47.8721 21.5601 48.1317C21.8338 48.3561 22.0418 48.6322 22.2032 48.9456C22.2734 49.082 22.3162 49.2142 22.2698 49.3748C22.2229 49.5375 22.299 49.6127 22.4678 49.6021C22.7975 49.5815 23.1269 49.5572 23.4567 49.5392C23.5399 49.5346 23.6263 49.5369 23.7073 49.5545C24.1398 49.6487 24.5719 49.7457 25.0026 49.8478C25.245 49.9054 25.309 49.8792 25.3701 49.632C25.4925 49.137 25.56 48.6232 25.7326 48.1471C26.022 47.3489 26.2417 46.5239 26.6194 45.758C26.6635 45.6685 26.6793 45.5642 26.7022 45.4653C26.8321 44.9061 26.9694 44.3483 27.086 43.7862C27.1811 43.3279 27.081 42.902 26.7919 42.5304C26.6779 42.3839 26.5432 42.2534 26.408 42.1066Z" fill="#1E1E1E"/>
<path d="M25.1717 44.0026C24.6982 43.8345 24.4788 43.4425 24.5805 42.8977C24.6228 42.8981 24.6443 42.91 24.6522 42.9264C24.6386 43.0767 24.6326 43.2229 24.6426 43.368C24.6449 43.4015 24.7021 43.4313 24.7361 43.4758C24.7378 43.5063 24.7374 43.5238 24.7381 43.5539C24.8834 43.6922 25.0276 43.8179 25.1734 43.9533C25.1738 43.9763 25.1727 43.9894 25.1717 44.0026Z" fill="#1E1E1E"/>
<path d="M24.8335 42.4484C25.1691 42.0953 25.7 42.0855 26.1035 42.443C26.0911 42.4643 26.084 42.4675 26.0662 42.4666C25.9069 42.3933 25.7591 42.322 25.6082 42.2581C25.5938 42.252 25.5598 42.2922 25.5245 42.3074C25.4944 42.2944 25.4747 42.2848 25.4474 42.2647C25.2585 42.3226 25.0773 42.3909 24.8803 42.4571C24.8542 42.4528 24.8439 42.4506 24.8335 42.4484Z" fill="#1E1E1E"/>
<path d="M26.3937 42.9609C26.4599 43.4531 26.2694 43.7917 25.7941 43.9927C25.7807 43.9704 25.7813 43.9576 25.793 43.9382C25.9418 43.815 26.0794 43.6985 26.2123 43.5719C26.2104 43.5551 26.2133 43.5483 26.2279 43.5355C26.277 43.3425 26.3143 43.1555 26.362 42.9655C26.3794 42.962 26.3866 42.9614 26.3937 42.9609Z" fill="#1E1E1E"/>
<path d="M25.7819 43.9448C25.7813 43.9576 25.7807 43.9704 25.7812 43.9928C25.588 44.006 25.3938 44.0096 25.1857 44.0079C25.1727 43.9894 25.1738 43.9763 25.1825 43.9492C25.192 43.9162 25.194 43.8972 25.1985 43.8745C25.201 43.8708 25.2064 43.8636 25.2203 43.8633C25.3639 43.9432 25.4953 43.9775 25.6382 43.8903C25.6493 43.8835 25.6869 43.9199 25.7049 43.9392C25.7016 43.9476 25.7056 43.9531 25.7095 43.9585C25.709 43.9502 25.7084 43.942 25.7165 43.9453C25.7441 43.9529 25.763 43.9488 25.7819 43.9448Z" fill="#1E1E1E"/>
<path d="M26.3939 42.9472C26.3866 42.9614 26.3794 42.962 26.3522 42.9576C26.3019 42.9356 26.2445 42.9162 26.2457 42.902C26.2625 42.7143 26.1414 42.6276 25.9971 42.5569C26.0265 42.5251 26.0517 42.4979 26.0769 42.4707C26.084 42.4675 26.091 42.4643 26.1077 42.4544C26.2096 42.6097 26.3019 42.7716 26.3939 42.9472Z" fill="#1E1E1E"/>
<path d="M24.823 42.454C24.8438 42.4506 24.8542 42.4528 24.881 42.4665C24.9238 42.493 24.9503 42.5079 24.9641 42.5227C24.7551 42.5995 24.7042 42.7588 24.6966 42.9459C24.6777 42.9353 24.6717 42.9285 24.6657 42.9218C24.6443 42.91 24.6228 42.8981 24.588 42.8869C24.654 42.7449 24.7332 42.6023 24.823 42.454Z" fill="#1E1E1E"/>
<path d="M25.5311 43.4678C25.4019 43.4853 25.2726 43.5028 25.1249 43.5228C25.1348 43.6179 25.1432 43.6983 25.15 43.7645C25.0263 43.6935 24.8956 43.6184 24.751 43.5423C24.7374 43.5238 24.7378 43.5063 24.7403 43.4618C24.7495 43.3697 24.7637 43.3043 24.7616 43.2394C24.7591 43.1602 24.7431 43.0814 24.7428 43.0124C24.8047 43.0678 24.8565 43.1134 24.908 43.1587C25.0043 43.0819 25.0904 43.0134 25.1747 42.961C25.1097 43.3143 25.197 43.4243 25.5311 43.4378C25.5313 43.4545 25.5312 43.4612 25.5311 43.4678Z" fill="#1E1E1E"/>
<path d="M25.5245 42.3074C25.6533 42.3859 25.7715 42.4609 25.895 42.5392C25.8426 42.559 25.7796 42.5827 25.6938 42.6149C25.7209 42.7103 25.7477 42.8046 25.7664 42.9153C25.6969 42.8869 25.6308 42.8471 25.5753 42.7958C25.5064 42.732 25.4477 42.7259 25.3756 42.7902C25.3152 42.8441 25.2462 42.8885 25.182 42.9189C25.1993 42.8445 25.2126 42.7872 25.2328 42.7324C25.2717 42.6267 25.2567 42.561 25.1252 42.5619C25.0995 42.562 25.0737 42.5411 25.0516 42.516C25.1802 42.4119 25.3901 42.471 25.4551 42.2752C25.4747 42.2848 25.4944 42.2944 25.5245 42.3074Z" fill="#1E1E1E"/>
<path d="M25.7809 42.9516C25.865 43.0253 25.9492 43.099 26.0415 43.1798C26.0827 43.1511 26.1401 43.1112 26.1822 43.0819C26.1903 43.2229 26.1988 43.3696 26.2117 43.5289C26.2133 43.5483 26.2104 43.5551 26.2123 43.5719C25.9909 43.5002 25.9194 43.7321 25.7544 43.8163C25.7682 43.7244 25.7799 43.647 25.7935 43.5565C25.7095 43.531 25.6314 43.5072 25.5422 43.4756C25.5312 43.4612 25.5313 43.4545 25.5413 43.4292C25.7495 43.382 25.8368 43.2794 25.7818 43.075C25.7714 43.0366 25.7807 42.9929 25.7809 42.9516Z" fill="#1E1E1E"/>
<path d="M36.833 36.6674C36.6798 35.9934 36.5312 35.334 36.3803 34.6751C36.3789 34.669 36.3481 34.6696 36.3094 34.6639C36.3094 34.733 36.3094 34.7959 36.3094 34.8588C36.3094 36.4396 36.3096 38.0204 36.3093 39.6012C36.3093 39.9069 36.2766 39.9382 35.9644 39.9383C35.6875 39.9384 35.4107 39.9391 35.1339 39.9378C34.888 39.9367 34.8316 39.8789 34.8313 39.6255C34.8305 39.0124 34.8311 38.3994 34.8311 37.7863C34.8311 35.6225 34.831 33.4586 34.8312 31.2948C34.8312 30.9891 34.8694 30.9502 35.1689 30.95C35.6022 30.9498 36.0355 30.9492 36.4689 30.9503C36.6922 30.9508 36.7577 30.9993 36.8065 31.2167C36.9417 31.8186 37.0718 32.4216 37.2056 33.0239C37.4752 34.2375 37.7458 35.4508 38.0506 36.6683C38.1103 36.4019 38.1701 36.1356 38.2296 35.8692C38.5748 34.326 38.9189 32.7825 39.2659 31.2397C39.3261 30.9719 39.3601 30.9503 39.6329 30.9501C40.0542 30.9496 40.4755 30.9498 40.8967 30.9502C41.1987 30.9504 41.242 30.992 41.2421 31.2927C41.2427 32.7833 41.2422 34.2739 41.2424 35.7646C41.2425 37.0328 41.2429 38.301 41.2433 39.5693C41.2434 39.8893 41.1968 39.9378 40.8841 39.9382C40.6132 39.9386 40.3424 39.9385 40.0716 39.938C39.7876 39.9375 39.7444 39.8961 39.7444 39.6172C39.7439 38.0304 39.7441 36.4436 39.744 34.8568C39.744 34.7943 39.744 34.7319 39.744 34.6694C39.7264 34.6649 39.7088 34.6603 39.6912 34.6558C39.6708 34.7034 39.642 34.7492 39.6311 34.799C39.3661 36.0104 39.1037 37.2223 38.8392 38.4338C38.7473 38.8549 38.648 39.2745 38.5585 39.6962C38.5226 39.8654 38.4293 39.9429 38.2576 39.9387C38.0953 39.9348 37.9327 39.9374 37.7702 39.9381C37.6199 39.9387 37.5345 39.8565 37.504 39.7184C37.2984 38.7884 37.0952 37.8578 36.8913 36.9274C36.8733 36.8456 36.8553 36.7638 36.833 36.6674Z" fill="#1E1E1E"/>
<path d="M28.2002 32.342C28.2091 32.4719 28.2178 32.5858 28.2179 32.6998C28.2188 34.5504 28.2258 36.4011 28.2112 38.2516C28.2089 38.5505 28.1549 38.8668 28.0448 39.1432C27.8195 39.7083 27.3174 39.9113 26.7544 39.926C25.8105 39.9509 24.8655 39.9349 23.9211 39.939C23.772 39.9397 23.7165 39.8676 23.719 39.7285C23.7215 39.5963 23.7191 39.4641 23.7191 39.3319C23.7191 36.6401 23.7191 33.9483 23.7192 31.2565C23.7192 30.964 23.7332 30.95 24.024 30.95C24.8963 30.9501 25.7688 30.9412 26.6409 30.9567C26.8824 30.961 27.1353 31.0046 27.3609 31.0891C27.8486 31.2716 28.0966 31.6613 28.1767 32.1652C28.1851 32.2185 28.1896 32.2725 28.2002 32.342ZM26.7336 35.8017C26.7336 35.417 26.7336 35.0322 26.7336 34.6475C26.7335 34.0703 26.7356 33.4932 26.7326 32.9161C26.7311 32.6308 26.6162 32.4586 26.3671 32.443C25.9977 32.4199 25.6258 32.4371 25.258 32.4371C25.258 34.4467 25.258 36.4404 25.258 38.4497C25.5906 38.4497 25.9142 38.45 26.2377 38.4497C26.6031 38.4494 26.7328 38.3196 26.7334 37.948C26.7346 37.2446 26.7336 36.5412 26.7336 35.8017Z" fill="#1E1E1E"/>
<path d="M5.89333 37.3684C6.09894 36.4164 6.30339 35.4798 6.50578 34.5427C6.74986 33.4125 6.99295 32.2821 7.23427 31.1514C7.26376 31.0132 7.33128 30.9465 7.48089 30.9483C7.95035 30.9539 8.41991 30.9503 8.88944 30.9503C9.1406 30.9504 9.15943 30.9641 9.21268 31.2104C9.4887 32.487 9.76317 33.7639 10.0396 35.0404C10.3769 36.598 10.7158 38.1553 11.0534 39.7129C11.0877 39.8711 11.0354 39.9367 10.8694 39.9378C10.5142 39.9402 10.1588 39.9299 9.80405 39.942C9.61222 39.9485 9.53636 39.865 9.50481 39.689C9.41493 39.1877 9.31566 38.6881 9.21979 38.1878C9.21756 38.1762 9.21188 38.1652 9.20491 38.1459C8.54795 38.1459 7.88828 38.1459 7.2141 38.1459C7.13768 38.5567 7.06223 38.9621 6.9868 39.3676C6.96267 39.4972 6.93822 39.6268 6.91459 39.7566C6.8918 39.8817 6.82082 39.9406 6.69012 39.9395C6.31693 39.9364 5.9437 39.9401 5.5705 39.9379C5.38795 39.9369 5.35205 39.8894 5.3918 39.7037C5.55738 38.9301 5.72462 38.1569 5.89333 37.3684ZM8.89433 36.8363C8.90042 36.8063 8.91618 36.7746 8.91119 36.7466C8.77455 35.9797 8.637 35.2131 8.49696 34.4469C8.41068 33.9748 8.32005 33.5036 8.23138 33.0319C8.21845 33.0314 8.20552 33.0309 8.19259 33.0303C7.96102 34.2936 7.72945 35.5569 7.49446 36.8388C7.96113 36.8388 8.41122 36.8388 8.89433 36.8363Z" fill="#1E1E1E"/>
<path d="M18.6404 33.3583C18.8019 32.6115 18.9621 31.8801 19.1154 31.1472C19.1455 31.0031 19.2158 30.9465 19.3621 30.9481C19.8374 30.9532 20.3129 30.9578 20.7879 30.9461C20.9786 30.9414 21.0513 31.017 21.0887 31.1949C21.3422 32.4027 21.6028 33.6089 21.8635 34.8152C22.2038 36.3896 22.5413 37.9647 22.8908 39.5371C23 40.0287 22.8678 39.9369 22.5491 39.9379C22.2603 39.9389 21.9712 39.9302 21.6828 39.941C21.4958 39.9481 21.4161 39.8752 21.3845 39.6912C21.2964 39.1781 21.1915 38.6678 21.0915 38.1475C20.4261 38.1475 19.7664 38.1475 19.0909 38.1475C19.0037 38.6139 18.9159 39.0831 18.8283 39.5523C18.8162 39.6171 18.8038 39.6819 18.7927 39.747C18.7701 39.8797 18.6971 39.9416 18.5573 39.9398C18.1903 39.9352 17.8233 39.9395 17.4562 39.9376C17.2602 39.9366 17.2268 39.8927 17.2694 39.6942C17.4631 38.7927 17.6575 37.8913 17.8525 36.99C18.1135 35.7843 18.3753 34.5787 18.6404 33.3583ZM20.6066 36.8389C20.6699 36.8389 20.7332 36.8389 20.8091 36.8389C20.572 35.5479 20.3398 34.2841 20.1077 33.0203C20.0949 33.0225 20.0821 33.0246 20.0693 33.0268C19.8376 34.2921 19.6059 35.5573 19.3711 36.839C19.7803 36.839 20.1764 36.839 20.6066 36.8389Z" fill="#1E1E1E"/>
<path d="M29.3392 34.4851C29.3392 33.3851 29.339 32.3032 29.3393 31.2212C29.3394 30.9829 29.3717 30.9503 29.6091 30.9502C30.9211 30.9498 32.2331 30.9499 33.5451 30.9502C33.7951 30.9503 33.8171 30.9716 33.8176 31.213C33.8184 31.5376 33.8184 31.8621 33.8176 32.1867C33.817 32.4142 33.7953 32.4367 33.5716 32.4369C32.7291 32.4376 31.8865 32.4373 31.0439 32.4374C30.9792 32.4374 30.9146 32.4374 30.8396 32.4374C30.8396 33.1907 30.8396 33.9275 30.8396 34.6936C30.901 34.6936 30.9639 34.6936 31.0267 34.6936C31.6466 34.6936 32.2665 34.6931 32.8864 34.6939C33.1092 34.6942 33.1555 34.7365 33.1574 34.9516C33.1603 35.2822 33.1609 35.6128 33.1572 35.9434C33.1549 36.1396 33.1064 36.1839 32.9069 36.1842C32.287 36.1852 31.6671 36.1845 31.0472 36.1844C30.9821 36.1844 30.917 36.1844 30.8405 36.1844C30.8405 36.9404 30.8405 37.6826 30.8405 38.4497C30.9048 38.4497 30.9683 38.4497 31.0317 38.4497C31.8743 38.4497 32.7169 38.4494 33.5595 38.4498C33.7999 38.4499 33.8168 38.4666 33.8174 38.7056C33.8183 39.0422 33.8137 39.3788 33.8196 39.7153C33.8225 39.8777 33.7556 39.9397 33.594 39.9394C32.2519 39.9365 30.9098 39.9385 29.5677 39.9375C29.3755 39.9374 29.3393 39.8915 29.3392 39.6604C29.3389 37.9413 29.3391 36.2222 29.3392 34.4851Z" fill="#1E1E1E"/>
<path d="M13.3812 37.3709C13.3817 37.5992 13.3746 37.8099 13.3847 38.0197C13.3996 38.3298 13.5306 38.4484 13.84 38.4497C14.0446 38.4505 14.2492 38.4527 14.4537 38.449C14.7056 38.4443 14.8462 38.3132 14.8541 38.0628C14.8632 37.7746 14.8583 37.4861 14.8605 37.1977C14.8623 36.9597 14.8912 36.9314 15.1343 36.9309C15.4592 36.9303 15.7842 36.9361 16.109 36.929C16.2781 36.9253 16.3488 36.9891 16.3459 37.1611C16.3392 37.5696 16.3481 37.9784 16.3415 38.3869C16.3268 39.3049 15.8754 39.8428 14.9657 39.9159C14.3458 39.9657 13.713 39.9519 13.0938 39.8893C12.327 39.8116 11.9047 39.3109 11.8541 38.5417C11.8466 38.4279 11.8432 38.3136 11.8431 38.1995C11.8425 36.3487 11.8367 34.4978 11.8488 32.6471C11.8506 32.3588 11.8918 32.0554 11.9897 31.7863C12.1917 31.2312 12.6628 30.9942 13.2169 30.9687C13.8403 30.9399 14.4697 30.9359 15.0908 30.988C15.8305 31.0501 16.2969 31.575 16.3314 32.3185C16.3536 32.7983 16.3395 33.2797 16.3451 33.7604C16.3467 33.9004 16.2725 33.9581 16.1457 33.959C15.7847 33.9613 15.4238 33.9601 15.0628 33.959C14.9059 33.9586 14.8588 33.8632 14.8596 33.7232C14.861 33.4407 14.864 33.1582 14.8572 32.8759C14.85 32.5805 14.7069 32.4414 14.4074 32.4322C14.2271 32.4266 14.0464 32.4285 13.8659 32.4311C13.5285 32.436 13.3842 32.5777 13.3825 32.9181C13.3791 33.6151 13.3812 34.3122 13.3812 35.0093C13.3811 35.7905 13.3812 36.5716 13.3812 37.3709Z" fill="#1E1E1E"/>
<path d="M44.0132 35.9907C43.3628 34.4112 42.7187 32.8445 42.0752 31.2775C41.9732 31.029 42.0262 30.9508 42.2956 30.9502C42.6326 30.9494 42.9695 30.9536 43.3064 30.9484C43.466 30.9459 43.5588 31.008 43.6178 31.1606C44.0085 32.171 44.4058 33.1788 44.8011 34.1874C44.8163 34.2262 44.832 34.2648 44.8638 34.3441C44.9707 34.0775 45.0666 33.8434 45.1585 33.6078C45.4717 32.8047 45.7859 32.0021 46.0939 31.1971C46.1603 31.0235 46.26 30.9392 46.4552 30.9467C46.7736 30.959 47.0928 30.9498 47.4116 30.9501C47.7116 30.9503 47.7646 31.0276 47.6495 31.3068C47.2438 32.2917 46.8361 33.2758 46.4299 34.2606C46.1743 34.8803 45.9186 35.4999 45.6676 36.1215C45.6396 36.1909 45.6318 36.2726 45.6317 36.3486C45.6294 37.4422 45.6303 38.5357 45.6297 39.6293C45.6296 39.8857 45.5789 39.9368 45.3262 39.9378C45.0133 39.9389 44.7005 39.9396 44.3876 39.9377C44.1599 39.9364 44.1096 39.8871 44.1094 39.6624C44.1084 38.5929 44.1123 37.5233 44.1048 36.4538C44.1037 36.3034 44.0494 36.1535 44.0132 35.9907Z" fill="#1E1E1E"/>
<path d="M26.7336 35.8198C26.7336 36.5412 26.7346 37.2446 26.7334 37.948C26.7328 38.3196 26.6031 38.4494 26.2377 38.4497C25.9142 38.45 25.5906 38.4497 25.258 38.4497C25.258 36.4404 25.258 34.4467 25.258 32.4371C25.6258 32.4371 25.9977 32.4199 26.3671 32.443C26.6162 32.4586 26.7311 32.6308 26.7326 32.9161C26.7356 33.4932 26.7335 34.0703 26.7336 34.6475C26.7336 35.0322 26.7336 35.417 26.7336 35.8198Z" fill="white"/>
<path d="M8.87783 36.8372C8.41124 36.8384 7.96115 36.8384 7.49448 36.8384C7.72947 35.5565 7.96104 34.2933 8.19261 33.03C8.20554 33.0305 8.21847 33.0311 8.2314 33.0316C8.32007 33.5032 8.4107 33.9745 8.49698 34.4465C8.63702 35.2127 8.77457 35.9794 8.91121 36.7462C8.9162 36.7743 8.90043 36.806 8.87783 36.8372Z" fill="white"/>
<path d="M20.5896 36.8389C20.1764 36.839 19.7803 36.839 19.3711 36.839C19.6058 35.5574 19.8376 34.2921 20.0693 33.0268C20.0821 33.0246 20.0949 33.0225 20.1077 33.0203C20.3398 34.2841 20.5719 35.5479 20.8091 36.8389C20.7332 36.8389 20.6699 36.8389 20.5896 36.8389Z" fill="white"/>
<path d="M39.3797 25.297C39.4079 25.2454 39.4371 25.1802 39.4641 25.181C40.0639 25.1997 40.6664 25.1976 41.2621 25.2596C41.7093 25.3061 41.969 25.6161 42.0521 26.0556C42.0876 26.2436 42.1113 26.4364 42.114 26.6274C42.1221 27.1924 42.1247 27.7577 42.1135 28.3226C42.109 28.5491 42.0868 28.7809 42.031 28.9997C41.9134 29.4601 41.5763 29.7205 41.1245 29.7527C40.5517 29.7935 39.9738 29.7626 39.3797 29.7626C39.3797 28.2924 39.3797 26.8032 39.3797 25.297ZM40.5411 25.8878C40.4207 25.8645 40.4075 25.9277 40.4079 26.0298C40.4114 27.0075 40.4099 27.9852 40.4105 28.9629C40.4105 29.0031 40.4168 29.0434 40.4205 29.0886C40.5075 29.0886 40.5846 29.095 40.6603 29.0874C40.9347 29.0598 41.0087 28.9874 41.0514 28.712C41.0597 28.6588 41.0648 28.6046 41.0648 28.5509C41.0658 27.8311 41.0702 27.1113 41.0639 26.3916C41.0604 25.9947 40.9745 25.9153 40.5411 25.8878Z" fill="#1E1E1E"/>
<path d="M33.2444 28.93C33.2444 27.6747 33.2444 26.4375 33.2444 25.1763C33.4653 25.1763 33.6735 25.1686 33.8811 25.1779C34.3303 25.198 34.7842 25.1936 35.227 25.2605C35.7473 25.3391 36.0363 25.702 36.0438 26.2259C36.0476 26.487 36.0139 26.7508 35.9736 27.0097C35.9406 27.2213 35.805 27.3848 35.6199 27.4855C35.4976 27.5519 35.506 27.6204 35.5382 27.731C35.7354 28.4089 35.9257 29.0888 36.1226 29.7832C35.7689 29.7832 35.425 29.7832 35.0662 29.7832C34.8997 29.1078 34.7311 28.424 34.5624 27.7397C34.4635 27.7397 34.3801 27.7397 34.2822 27.7397C34.2822 28.4167 34.2822 29.093 34.2822 29.783C33.9347 29.783 33.6011 29.783 33.2444 29.783C33.2444 29.5088 33.2444 29.2284 33.2444 28.93ZM35.1006 26.3044C35.0219 25.9135 34.8846 25.8009 34.2855 25.8826C34.2855 26.2988 34.2855 26.7145 34.2855 27.1341C34.3994 27.1341 34.501 27.1365 34.6025 27.1336C34.8876 27.1255 35.0181 27.0243 35.0743 26.7436C35.1009 26.6108 35.096 26.4718 35.1006 26.3044Z" fill="#1E1E1E"/>
<path d="M22.72 28.4252C22.8435 28.8657 22.965 29.2916 23.0854 29.7178C23.0915 29.7393 23.0886 29.7634 23.09 29.7904C22.7427 29.7904 22.4011 29.7904 22.0512 29.7904C21.8837 29.1085 21.7173 28.4304 21.5488 27.7442C21.4546 27.7442 21.3614 27.7442 21.2538 27.7442C21.2538 28.4279 21.2538 29.1041 21.2538 29.7883C20.9109 29.7883 20.582 29.7883 20.2408 29.7883C20.2408 28.261 20.2408 26.7326 20.2408 25.1992C20.244 25.1965 20.2531 25.1822 20.2619 25.1823C20.8387 25.1899 21.4155 25.1951 21.9921 25.2106C22.1037 25.2136 22.2167 25.2499 22.325 25.284C22.7465 25.4169 22.9991 25.7002 23.0178 26.1461C23.0293 26.4187 23.0084 26.6956 22.9717 26.9664C22.9396 27.2035 22.7915 27.3848 22.5815 27.4997C22.4915 27.549 22.4814 27.6015 22.5071 27.687C22.5793 27.9277 22.6477 28.1694 22.72 28.4252ZM22.0722 26.248C21.9597 25.8813 21.7229 25.7751 21.26 25.8854C21.26 26.2964 21.26 26.708 21.26 27.1182C21.8259 27.1911 22.1523 27.1059 22.0819 26.3133C22.0808 26.3014 22.0778 26.2896 22.0722 26.248Z" fill="#1E1E1E"/>
<path d="M7.80983 27.3428C7.81884 26.9768 7.8102 26.6273 7.84047 26.2813C7.90605 25.5315 8.31516 25.143 9.06782 25.1168C9.29896 25.1088 9.53729 25.1357 9.76326 25.1867C10.2311 25.2922 10.5612 25.6987 10.5784 26.2499C10.6039 27.0717 10.6108 27.8959 10.5773 28.7171C10.5487 29.4187 10.1054 29.825 9.4049 29.8579C9.17869 29.8685 8.94323 29.8653 8.72444 29.8147C8.17986 29.6888 7.89694 29.3393 7.84406 28.7104C7.80642 28.2628 7.81943 27.8108 7.80983 27.3428ZM9.55241 26.2677C9.54872 26.2318 9.54557 26.1959 9.54124 26.1602C9.51453 25.9394 9.42226 25.8417 9.23181 25.832C9.02833 25.8216 8.92763 25.9077 8.88375 26.1373C8.86918 26.2135 8.85949 26.2919 8.8593 26.3694C8.85743 27.1142 8.85564 27.8591 8.86048 28.604C8.86125 28.7217 8.88156 28.8438 8.91919 28.9549C8.94049 29.0179 9.0058 29.0865 9.06788 29.1115C9.32772 29.2161 9.53153 29.0943 9.53754 28.8036C9.5548 27.9693 9.55102 27.1345 9.55241 26.2677Z" fill="#1E1E1E"/>
<path d="M16.1031 28.7299C16.1045 28.5162 16.1045 28.3186 16.1045 28.1106C16.4425 28.1106 16.7697 28.1106 17.1422 28.1106C17.1081 28.4301 17.1057 28.7503 17.0341 29.0542C16.9262 29.5121 16.614 29.7953 16.1384 29.8395C15.8605 29.8652 15.5685 29.8694 15.2976 29.813C14.7741 29.704 14.4481 29.3207 14.4262 28.7414C14.3945 27.9029 14.3888 27.0609 14.4278 26.2229C14.4599 25.5338 14.8934 25.1548 15.6124 25.1186C15.8609 25.1061 16.1197 25.1324 16.3614 25.1917C16.7393 25.2843 16.9666 25.5624 17.044 25.9322C17.1046 26.2217 17.1091 26.523 17.1399 26.8321C16.7781 26.8321 16.4557 26.8321 16.108 26.8321C16.108 26.6768 16.1117 26.5173 16.1066 26.358C16.1034 26.2564 16.0913 26.1546 16.0758 26.054C16.0544 25.9148 15.9606 25.844 15.8274 25.8367C15.6854 25.829 15.54 25.8446 15.4873 26.0077C15.4527 26.1145 15.4256 26.2293 15.4248 26.3407C15.4198 27.1096 15.422 27.8786 15.424 28.6476C15.4241 28.7126 15.4336 28.7791 15.4492 28.8424C15.5064 29.0732 15.593 29.1487 15.7852 29.1439C15.9799 29.1391 16.0507 29.0633 16.0903 28.8172C16.0942 28.7935 16.098 28.7698 16.1031 28.7299Z" fill="#1E1E1E"/>
<path d="M12.2089 26.5505C12.209 27.2233 12.2076 27.8783 12.2105 28.5333C12.211 28.6465 12.2211 28.7614 12.2425 28.8726C12.2799 29.068 12.3783 29.1453 12.564 29.1444C12.7439 29.1435 12.8355 29.074 12.8597 28.8743C12.8898 28.6254 12.896 28.3736 12.9133 28.1112C13.2297 28.1112 13.5562 28.1112 13.933 28.1112C13.8912 28.4453 13.877 28.7753 13.8035 29.0915C13.7103 29.4925 13.4348 29.7636 13.0252 29.82C12.7147 29.8628 12.3836 29.8709 12.0783 29.8105C11.5556 29.7072 11.2271 29.3091 11.2064 28.738C11.1763 27.9046 11.1708 27.0681 11.2076 26.2353C11.2381 25.5456 11.6647 25.1629 12.3838 25.1198C12.6377 25.1046 12.9047 25.1296 13.1503 25.1945C13.616 25.3175 13.8099 25.6864 13.8702 26.1312C13.9007 26.3557 13.8968 26.5849 13.9092 26.8273C13.5653 26.8273 13.2395 26.8273 12.914 26.8273C12.8967 26.5789 12.8813 26.3292 12.8612 26.0798C12.8476 25.912 12.742 25.8367 12.5831 25.8344C12.4188 25.832 12.2793 25.8852 12.2498 26.0678C12.225 26.221 12.2217 26.3776 12.2089 26.5505Z" fill="#1E1E1E"/>
<path d="M44.3789 25.1764C44.4323 25.2171 44.4931 25.2529 44.5022 25.299C44.62 25.8921 44.7312 26.4864 44.8423 27.0808C45.0009 27.9285 45.158 28.7765 45.3154 29.6245C45.3251 29.6768 45.3316 29.7297 45.3407 29.79C45.0272 29.79 44.7223 29.79 44.4072 29.79C44.3544 29.4687 44.3022 29.1512 44.2492 28.829C44.0227 28.829 43.8022 28.829 43.5737 28.829C43.5188 29.1512 43.4649 29.4678 43.41 29.7897C43.0865 29.7897 42.7694 29.7897 42.4467 29.7897C42.7372 28.2531 43.0262 26.7242 43.3188 25.1763C43.6675 25.1763 44.0148 25.1763 44.3789 25.1764ZM43.7705 27.4536C43.7346 27.7002 43.6987 27.9468 43.6622 28.1974C43.836 28.1974 43.9889 28.1974 44.1535 28.1974C44.0736 27.6142 43.9954 27.0436 43.9172 26.4731C43.9096 26.4739 43.902 26.4747 43.8943 26.4755C43.8545 26.7909 43.8147 27.1063 43.7705 27.4536Z" fill="#1E1E1E"/>
<path d="M6.28962 28.3608C6.05165 28.1078 5.82646 27.8593 5.58269 27.6305C5.33206 27.3952 5.05894 27.1758 4.94316 26.8411C4.63726 25.9568 5.0248 24.9895 6.35024 25.1257C6.87007 25.1791 7.11803 25.392 7.2643 26.1171C7.28312 26.2104 7.28391 26.3073 7.29502 26.423C7.0036 26.4594 6.72106 26.4947 6.42179 26.5321C6.40351 26.3857 6.38785 26.2513 6.36969 26.1172C6.34891 25.9638 6.2823 25.8556 6.10594 25.861C5.92786 25.8665 5.87565 25.9966 5.85082 26.1361C5.80915 26.3703 5.87875 26.5798 6.0467 26.7454C6.23907 26.9351 6.44162 27.1147 6.64347 27.2945C6.90566 27.528 7.15418 27.7743 7.27553 28.1121C7.63614 29.1162 7.05052 29.9305 6.03075 29.8702C5.38904 29.8322 4.96402 29.4571 4.87763 28.8034C4.86052 28.6739 4.85268 28.5432 4.83951 28.4017C5.13347 28.3574 5.41056 28.3158 5.69791 28.2725C5.71579 28.4092 5.71876 28.5424 5.75364 28.6667C5.78662 28.7842 5.82871 28.9185 5.91246 28.9964C5.9814 29.0605 6.12776 29.0905 6.2199 29.0646C6.28712 29.0458 6.36044 28.9127 6.36279 28.8287C6.36701 28.6778 6.31989 28.5256 6.28962 28.3608Z" fill="#1E1E1E"/>
<path d="M30.1404 25.1766C30.1714 25.2143 30.2049 25.2551 30.1989 25.289C30.0784 25.9795 29.9541 26.6694 29.829 27.3591C29.6869 28.143 29.5434 28.9267 29.4002 29.7104C29.396 29.7332 29.3892 29.7556 29.3816 29.7866C29.0198 29.7866 28.662 29.7866 28.2951 29.7866C28.0187 28.2541 27.7427 26.7241 27.4652 25.1854C27.762 25.1854 28.0479 25.1854 28.3392 25.1854C28.501 26.2031 28.6615 27.2126 28.8221 28.2222C28.8312 28.2217 28.8403 28.2213 28.8494 28.2208C28.9982 27.2121 29.147 26.2033 29.2985 25.1765C29.5744 25.1765 29.8494 25.1765 30.1404 25.1766Z" fill="#1E1E1E"/>
<path d="M26.3372 29.1102C26.6366 29.1102 26.9183 29.1102 27.2093 29.1102C27.2093 29.3434 27.2093 29.5631 27.2093 29.7896C26.5174 29.7896 25.8327 29.7896 25.1356 29.7896C25.1356 28.2594 25.1356 26.7298 25.1356 25.1884C25.8153 25.1884 26.4978 25.1884 27.1926 25.1884C27.1926 25.4029 27.1926 25.6221 27.1926 25.8565C26.8582 25.8565 26.5182 25.8565 26.1652 25.8565C26.1652 26.2462 26.1652 26.6212 26.1652 27.0108C26.4143 27.0108 26.67 27.0108 26.9365 27.0108C26.9365 27.2556 26.9365 27.4862 26.9365 27.7322C26.6795 27.7322 26.4239 27.7322 26.1605 27.7322C26.1605 28.1953 26.1605 28.6432 26.1605 29.1102C26.2156 29.1102 26.2676 29.1102 26.3372 29.1102Z" fill="#1E1E1E"/>
<path d="M17.6688 28.3167C17.6688 27.2657 17.6688 26.2328 17.6688 25.1881C18.3675 25.1881 19.0553 25.1881 19.7515 25.1881C19.7515 25.4108 19.7515 25.6299 19.7515 25.8639C19.4047 25.8639 19.0644 25.8639 18.7131 25.8639C18.7131 26.253 18.7131 26.6275 18.7131 27.016C18.9722 27.016 19.2286 27.016 19.494 27.016C19.494 27.2558 19.494 27.4819 19.494 27.7295C19.2379 27.7295 18.9771 27.7295 18.7094 27.7295C18.7094 28.1983 18.7094 28.6457 18.7094 29.1057C19.0576 29.1057 19.3986 29.1057 19.7524 29.1057C19.7524 29.3365 19.7524 29.5555 19.7524 29.7856C19.0702 29.7856 18.381 29.7856 17.6688 29.7856C17.6688 29.3036 17.6688 28.8192 17.6688 28.3167Z" fill="#1E1E1E"/>
<path d="M31.8588 29.7964C31.4631 29.7964 31.0853 29.7964 30.6997 29.7964C30.6997 28.2538 30.6997 26.7252 30.6997 25.1865C31.3861 25.1865 32.0682 25.1865 32.7593 25.1865C32.7593 25.4095 32.7593 25.6284 32.7593 25.8619C32.4145 25.8619 32.0746 25.8619 31.7247 25.8619C31.7247 26.2512 31.7247 26.626 31.7247 27.0145C31.9813 27.0145 32.2371 27.0145 32.5025 27.0145C32.5025 27.2581 32.5025 27.4883 32.5025 27.733C32.242 27.733 31.9863 27.733 31.7227 27.733C31.7227 28.195 31.7227 28.6427 31.7227 29.1054C32.0713 29.1054 32.4174 29.1054 32.7748 29.1054C32.7748 29.3389 32.7748 29.5578 32.7748 29.7964C32.4742 29.7964 32.1756 29.7964 31.8588 29.7964Z" fill="#1E1E1E"/>
<path d="M46.5364 26.1002C46.5893 26.2679 46.6354 26.4226 46.6962 26.6265C46.7649 26.383 46.8231 26.181 46.8787 25.9784C46.939 25.759 47.0021 25.5402 47.0534 25.3188C47.0775 25.2145 47.1152 25.1682 47.2328 25.1731C47.4845 25.1836 47.737 25.1763 47.9995 25.1763C47.9995 25.2079 48.005 25.2315 47.9987 25.2514C47.7414 26.0676 47.4806 26.8828 47.2272 27.7002C47.1888 27.8239 47.167 27.9577 47.1655 28.0871C47.1589 28.6506 47.1627 29.2141 47.1627 29.787C46.8279 29.787 46.5072 29.787 46.1716 29.787C46.1716 29.3711 46.1515 28.9627 46.1769 28.5571C46.2069 28.0779 46.0958 27.6328 45.9453 27.1869C45.7291 26.5466 45.5278 25.9013 45.3206 25.258C45.3135 25.236 45.3104 25.2127 45.3038 25.1825C45.6232 25.1825 45.9351 25.1825 46.2629 25.1825C46.3513 25.4822 46.4404 25.7848 46.5364 26.1002Z" fill="#1E1E1E"/>
<path d="M36.9978 27.4414C36.7534 26.6826 36.5137 25.9374 36.2709 25.1825C36.5967 25.1825 36.9082 25.1825 37.2353 25.1825C37.3747 25.6429 37.5145 26.1047 37.6543 26.5666C37.6655 26.5692 37.6767 26.5719 37.688 26.5745C37.8144 26.1135 37.9408 25.6524 38.0689 25.1851C38.3738 25.1851 38.6717 25.1851 38.9891 25.1851C38.8715 25.5649 38.7584 25.9356 38.6418 26.3053C38.4836 26.8072 38.321 27.3077 38.165 27.8103C38.1425 27.8829 38.1399 27.9638 38.1396 28.0408C38.1376 28.617 38.1385 29.1931 38.1385 29.7828C37.8117 29.7828 37.4906 29.7828 37.1504 29.7828C37.1504 29.3623 37.1425 28.9371 37.1528 28.5124C37.1616 28.1499 37.1484 27.794 36.9978 27.4414Z" fill="#1E1E1E"/>
<path d="M40.5583 25.8886C40.9745 25.9153 41.0604 25.9947 41.0639 26.3916C41.0702 27.1113 41.0658 27.8311 41.0649 28.5509C41.0648 28.6046 41.0597 28.6589 41.0514 28.712C41.0087 28.9874 40.9347 29.0598 40.6603 29.0874C40.5846 29.095 40.5075 29.0886 40.4205 29.0886C40.4168 29.0434 40.4105 29.0031 40.4105 28.9629C40.4099 27.9852 40.4114 27.0075 40.4079 26.0298C40.4075 25.9277 40.4207 25.8645 40.5583 25.8886Z" fill="white"/>
<path d="M35.1029 26.32C35.096 26.4718 35.1009 26.6108 35.0743 26.7436C35.0181 27.0243 34.8876 27.1255 34.6025 27.1336C34.501 27.1365 34.3994 27.1341 34.2855 27.1341C34.2855 26.7145 34.2855 26.2988 34.2855 25.8826C34.8846 25.8008 35.0219 25.9135 35.1029 26.32Z" fill="white"/>
<path d="M22.074 26.2629C22.0778 26.2896 22.0809 26.3014 22.0819 26.3133C22.1523 27.1059 21.8259 27.1911 21.26 27.1182C21.26 26.708 21.26 26.2964 21.26 25.8854C21.7229 25.7751 21.9597 25.8813 22.074 26.2629Z" fill="white"/>
<path d="M9.55396 26.2838C9.55102 27.1345 9.55479 27.9693 9.53754 28.8036C9.53152 29.0943 9.32771 29.2161 9.06787 29.1115C9.0058 29.0865 8.94048 29.0179 8.91918 28.9549C8.88156 28.8438 8.86124 28.7217 8.86047 28.604C8.85563 27.8591 8.85742 27.1142 8.85929 26.3694C8.85949 26.2919 8.86917 26.2135 8.88374 26.1373C8.92763 25.9077 9.02832 25.8216 9.2318 25.832C9.42226 25.8417 9.51452 25.9394 9.54124 26.1602C9.54556 26.1959 9.54871 26.2318 9.55396 26.2838Z" fill="white"/>
<path d="M43.7727 27.4377C43.8147 27.1063 43.8545 26.7909 43.8943 26.4755C43.902 26.4747 43.9096 26.4739 43.9172 26.4731C43.9954 27.0436 44.0736 27.6142 44.1536 28.1974C43.9889 28.1974 43.836 28.1974 43.6622 28.1974C43.6987 27.9468 43.7346 27.7002 43.7727 27.4377Z" fill="white"/>
</svg>
